<?xml version="1.0" encoding="UTF-8" standalone="no"?>
<!-- Created with Inkscape (http://www.inkscape.org/) -->

<svg
   width="128"
   height="128"
   viewBox="0 0 33.866665 33.866667"
   version="1.1"
   id="svg5"
   inkscape:version="1.1.1 (3bf5ae0, 2021-09-20)"
   sodipodi:docname="Keysound.svg"
   xmlns:inkscape="http://www.inkscape.org/namespaces/inkscape"
   xmlns:sodipodi="http://sodipodi.sourceforge.net/DTD/sodipodi-0.dtd"
   xmlns:xlink="http://www.w3.org/1999/xlink"
   xmlns="http://www.w3.org/2000/svg"
   xmlns:svg="http://www.w3.org/2000/svg">
  <sodipodi:namedview
     id="namedview7"
     pagecolor="#505050"
     bordercolor="#eeeeee"
     borderopacity="1"
     inkscape:pageshadow="0"
     inkscape:pageopacity="0"
     inkscape:pagecheckerboard="0"
     inkscape:document-units="mm"
     showgrid="false"
     units="px"
     inkscape:zoom="2"
     inkscape:cx="189"
     inkscape:cy="61"
     inkscape:window-width="1920"
     inkscape:window-height="1054"
     inkscape:window-x="0"
     inkscape:window-y="26"
     inkscape:window-maximized="1"
     inkscape:current-layer="layer1"
     inkscape:snap-nodes="false"
     inkscape:object-paths="true"
     inkscape:snap-intersection-paths="true"
     inkscape:snap-smooth-nodes="true"
     inkscape:snap-midpoints="true"
     showguides="true"
     inkscape:guide-bbox="true" />
  <defs
     id="defs2">
    <linearGradient
       inkscape:collect="always"
       id="linearGradient341180">
      <stop
         style="stop-color:#ffc107;stop-opacity:0.0056736"
         offset="0"
         id="stop341176" />
      <stop
         style="stop-color:#ffe434;stop-opacity:0.70142418"
         offset="0.9179914"
         id="stop362988" />
      <stop
         style="stop-color:#ffdb3c;stop-opacity:0.74509805"
         offset="0.9543106"
         id="stop351908" />
      <stop
         style="stop-color:#ffc107;stop-opacity:0.50204563"
         offset="1"
         id="stop341178" />
    </linearGradient>
    <linearGradient
       inkscape:collect="always"
       xlink:href="#linearGradient341180"
       id="linearGradient341182"
       x1="77.548882"
       y1="133.16774"
       x2="77.548882"
       y2="89.150543"
       gradientUnits="userSpaceOnUse"
       gradientTransform="matrix(0.20949264,0,0,0.22704548,-3.8406985e-7,-2.2998039)" />
  </defs>
  <g
     inkscape:label="图层 1"
     inkscape:groupmode="layer"
     id="layer1"
     sodipodi:insensitive="true">
    <rect
       style="display:inline;fill:#607a88;fill-opacity:1;stroke:none;stroke-width:0.0793751;stroke-linecap:round;stroke-linejoin:round"
       id="rect111493"
       width="31.905909"
       height="1.8145051"
       x="0.98037934"
       y="14.020224"
       ry="0"
       sodipodi:insensitive="true" />
    <path
       id="rect882"
       style="display:inline;fill:#ffc107;fill-opacity:1;stroke-width:0.0793749;stroke-linecap:round;stroke-linejoin:round"
       d="M 3.7833035,10.474751 A 1.0340367,1.0340367 0 0 0 2.74922,11.508834 v 16.792164 c 0,1.925545 1.5501963,3.475742 3.4757416,3.475742 H 27.641597 c 1.925545,0 3.47585,-1.550197 3.47585,-3.475742 V 11.508834 a 1.0340367,1.0340367 0 0 0 -1.034084,-1.034083 z"
       sodipodi:insensitive="true" />
    <path
       id="path327879"
       style="display:inline;fill:url(#linearGradient341182);fill-opacity:1;stroke-width:0.0793751;stroke-linecap:round;stroke-linejoin:round"
       d="M 2.7492195,17.665135 V 28.065934 H 31.117448 V 17.665135 Z"
       sodipodi:nodetypes="ccccc"
       sodipodi:insensitive="true" />
    <rect
       style="display:inline;fill:#37474f;fill-opacity:1;stroke-width:0.0793751;stroke-linecap:round;stroke-linejoin:round"
       id="rect1260"
       width="21.727352"
       height="10.862329"
       x="6.0696573"
       y="18.244102"
       ry="2.5196865"
       sodipodi:insensitive="true" />
    <path
       id="rect1441"
       style="display:inline;fill:#283339;fill-opacity:1;stroke-width:0.0793749;stroke-linecap:round;stroke-linejoin:round"
       d="m 8.5893234,18.244125 c -1.3959065,0 -2.5197122,1.123806 -2.5197122,2.519712 v 0.09137 H 27.797056 v -0.09137 c 0,-1.395906 -1.123806,-2.519712 -2.519712,-2.519712 z"
       sodipodi:nodetypes="ssccsss"
       sodipodi:insensitive="true" />
    <path
       id="path414782"
       style="display:inline;fill:#b0bec5;fill-opacity:1;stroke-width:0.0865967;stroke-linecap:round;stroke-linejoin:round"
       d="M 9.5772055,21.925607 A 1.1838615,1.1838615 0 0 0 8.3933113,23.1095 1.1838615,1.1838615 0 0 0 9.5772055,24.293393 1.1838615,1.1838615 0 0 0 10.7611,23.1095 1.1838615,1.1838615 0 0 0 9.5772055,21.925607 Z m 3.6781175,0 a 1.1838615,1.1838615 0 0 0 -1.183894,1.183893 1.1838615,1.1838615 0 0 0 1.183894,1.183893 1.1838615,1.1838615 0 0 0 1.183788,-1.183893 1.1838615,1.1838615 0 0 0 -1.183788,-1.183893 z m 3.678011,0 A 1.1838615,1.1838615 0 0 0 15.74944,23.1095 1.1838615,1.1838615 0 0 0 16.933334,24.293393 1.1838615,1.1838615 0 0 0 18.117229,23.1095 1.1838615,1.1838615 0 0 0 16.933334,21.925607 Z m 3.678012,0 a 1.1838615,1.1838615 0 0 0 -1.183788,1.183893 1.1838615,1.1838615 0 0 0 1.183788,1.183893 1.1838615,1.1838615 0 0 0 1.183891,-1.183893 1.1838615,1.1838615 0 0 0 -1.183891,-1.183893 z m 3.678117,0 A 1.1838615,1.1838615 0 0 0 23.105565,23.1095 1.1838615,1.1838615 0 0 0 24.289463,24.293393 1.1838615,1.1838615 0 0 0 25.473356,23.1095 1.1838615,1.1838615 0 0 0 24.289463,21.925607 Z M 9.5772055,25.273163 A 1.1838615,1.1838615 0 0 0 8.3933113,26.457056 1.1838615,1.1838615 0 0 0 9.5772055,27.640949 1.1838615,1.1838615 0 0 0 10.7611,26.457056 1.1838615,1.1838615 0 0 0 9.5772055,25.273163 Z m 3.6780115,0 a 1.1838615,1.1838615 0 0 0 -1.183788,1.183893 1.1838615,1.1838615 0 0 0 1.183788,1.183893 h 7.356235 a 1.1838615,1.1838615 0 0 0 1.183785,-1.183893 1.1838615,1.1838615 0 0 0 -1.183785,-1.183893 z m 11.034246,0 a 1.1838615,1.1838615 0 0 0 -1.183898,1.183893 1.1838615,1.1838615 0 0 0 1.183898,1.183893 1.1838615,1.1838615 0 0 0 1.183893,-1.183893 1.1838615,1.1838615 0 0 0 -1.183893,-1.183893 z"
       sodipodi:insensitive="true" />
    <path
       id="rect49106"
       style="display:inline;fill:#90caf9;fill-opacity:1;stroke-width:0.0793751;stroke-linecap:round;stroke-linejoin:round"
       d="M 6.2963819,3.2500198 H 27.570285 V 12.637438 H 22.25181 l -1.31505,1.441134 H 16.933333 12.929907 L 11.614858,12.637438 H 6.2963819 Z"
       sodipodi:nodetypes="cccccccccc"
       sodipodi:insensitive="true" />
    <path
       id="rect42444"
       style="display:inline;fill:#37474f;fill-opacity:1;stroke:none;stroke-width:0.0793751;stroke-linecap:round;stroke-linejoin:round"
       d="m 4.4502829,10.474751 v 0.7564 c 0,1.008333 0.8605441,1.820039 1.9294882,1.820039 h 4.2543359 a 6.3314544,3.6743318 0 0 0 6.299226,3.325371 6.3314544,3.6743318 0 0 0 6.299227,-3.325371 h 4.254337 c 1.068942,0 1.929488,-0.811706 1.929488,-1.820039 v -0.7564 h -1.846129 v 1.116576 h -7.419594 -0.798513 v 0.641755 l 1.110622,0.800029 v 0.288508 c 0,0.355494 -0.286261,0.641756 -0.641755,0.641756 h -5.775365 c -0.355494,0 -0.641755,-0.286262 -0.641755,-0.641756 v -0.288508 l 1.110622,-0.800029 V 11.591327 H 13.720876 6.2964119 v -1.116576 z"
       sodipodi:insensitive="true" />
    <path
       id="rect186602"
       style="display:inline;fill:#ffc107;fill-opacity:1;stroke:none;stroke-width:0.0793749;stroke-linecap:round;stroke-linejoin:round"
       d="m 0,13.137255 v 3.580428 h 1.8159251 v -3.580428 z m 32.050742,0 v 3.580428 h 1.815925 v -3.580428 z"
       sodipodi:insensitive="true" />
    <path
       id="path425177"
       style="font-weight:bold;font-size:3.91869px;line-height:1.25;font-family:'DejaVu Serif';-inkscape-font-specification:'DejaVu Serif, Bold';display:inline;fill:#104e8b;stroke-width:0.264586"
       d="m 25.647013,5.5727864 v 0.2444295 h 0.272852 V 6.852295 c -0.0539,-0.1127496 -0.126874,-0.1962936 -0.219108,-0.2506308 -0.09104,-0.055695 -0.203805,-0.083716 -0.337964,-0.083716 -0.270715,0 -0.483517,0.1014516 -0.639238,0.3038573 -0.154522,0.2024057 -0.232027,0.4812498 -0.232027,0.8371583 0,0.3545499 0.07751,0.6339107 0.232027,0.8376748 0.155721,0.2037644 0.368523,0.3054078 0.639238,0.3054078 0.134159,0 0.246927,-0.026795 0.337964,-0.081132 0.09224,-0.055696 0.165208,-0.1399481 0.219108,-0.2526979 v 0.2749187 h 0.907438 V 8.4966388 H 26.556002 V 5.5727864 Z M 7.0393637,5.7009439 V 5.9474406 H 7.3824952 V 8.4966388 H 7.0393637 V 8.7431355 H 8.4191243 V 8.4966388 H 8.0744426 V 7.2657064 L 9.2692017,8.7431355 H 10.17819 V 8.4966388 H 9.9141235 L 8.6046427,6.8869181 9.5673746,5.9474406 H 9.9249757 V 5.7009439 H 8.9240032 V 5.9474406 H 9.2118408 L 8.0744426,7.057967 V 5.9474406 H 8.4191243 V 5.7009439 Z m 4.1217123,0.8170045 c -0.322222,0 -0.5736,0.1007428 -0.754476,0.3017904 -0.180876,0.2010473 -0.271301,0.4806 -0.271301,0.8392252 0,0.3667758 0.08798,0.6496796 0.264067,0.8480102 0.177282,0.196972 0.431103,0.2950724 0.76171,0.2950724 0.275505,0 0.490047,-0.05765 0.643372,-0.1731161 0.153325,-0.1154663 0.255968,-0.29621 0.307474,-0.5420857 h -0.298689 c -0.02396,0.1575778 -0.07825,0.2778373 -0.163298,0.3607014 -0.08505,0.082864 -0.196593,0.1245404 -0.334346,0.1245404 -0.165304,0 -0.284885,-0.061902 -0.359152,-0.1855184 -0.07427,-0.1249757 -0.111621,-0.3273618 -0.111621,-0.6071981 v -0.016537 h 1.313615 C 12.147649,7.3553049 12.057577,7.0463147 11.88868,6.8357585 11.719783,6.6238434 11.477308,6.5179484 11.161076,6.5179484 Z m 4.341337,0 c -0.299463,0 -0.521333,0.05765 -0.665076,0.1731158 -0.143741,0.1141082 -0.21549,0.2889909 -0.21549,0.5239991 0,0.1765956 0.04417,0.3170807 0.132808,0.4216797 0.08864,0.1032407 0.231787,0.1825334 0.429431,0.2382285 l 0.262516,0.075448 c 0.125777,0.035319 0.210095,0.076995 0.253215,0.1245401 0.04432,0.047545 0.06666,0.1145988 0.06666,0.2015382 0,0.09509 -0.03491,0.1685216 -0.104387,0.2201415 -0.06828,0.050262 -0.167255,0.075448 -0.296622,0.075448 -0.154523,-3e-7 -0.276547,-0.042385 -0.366386,-0.1266073 -0.08983,-0.085581 -0.142907,-0.2088672 -0.15968,-0.3705202 H 14.636313 V 8.680091 c 0.148533,0.040754 0.289235,0.071091 0.422196,0.091467 0.132962,0.020376 0.258651,0.030489 0.377239,0.030489 0.324617,0 0.563426,-0.05765 0.716752,-0.1731161 0.154522,-0.1168249 0.232027,-0.2975687 0.232027,-0.5420857 0,-0.1888215 -0.04783,-0.3358761 -0.143661,-0.4418336 -0.09583,-0.1059574 -0.268996,-0.1951704 -0.519348,-0.267167 l -0.260449,-0.075448 c -0.09942,-0.028527 -0.168372,-0.063825 -0.206706,-0.1059366 -0.03833,-0.042111 -0.05736,-0.099761 -0.05736,-0.173116 0,-0.089657 0.03282,-0.1574192 0.0987,-0.2036051 0.06708,-0.047545 0.165188,-0.071314 0.294556,-0.071314 0.153325,0 0.27098,0.037424 0.352433,0.1121381 0.08265,0.074713 0.129263,0.1857608 0.140043,0.3338295 h 0.203089 V 6.6481729 C 16.131301,6.6033449 15.98973,6.5708809 15.86156,6.5505039 15.734588,6.5287679 15.615007,6.5179479 15.502409,6.5179479 Z m 2.261877,0 c -0.336595,0 -0.600543,0.1014516 -0.792199,0.3038573 -0.190459,0.2010476 -0.285771,0.4798915 -0.285771,0.8371583 0,0.3559083 0.09531,0.6359777 0.285771,0.839742 0.191656,0.2024057 0.455604,0.3033406 0.792199,0.3033406 0.336597,0 0.600191,-0.1009349 0.79065,-0.3033406 0.191656,-0.2037643 0.287321,-0.4838337 0.287321,-0.839742 0,-0.3572668 -0.0948,-0.6361107 -0.285254,-0.8371583 C 18.366549,6.6194 18.102085,6.5179484 17.76429,6.5179484 Z m 5.568136,0 c -0.149731,0 -0.27333,0.028729 -0.371554,0.085783 -0.09822,0.057054 -0.185854,0.1500023 -0.262516,0.2790529 V 6.5768595 h -0.907438 v 0.2470134 h 0.271301 v 1.6727659 h -0.271301 v 0.2464967 h 1.141016 V 8.4966388 H 22.698356 V 7.5246052 c 0,-0.2322912 0.03002,-0.4015052 0.08992,-0.5074626 0.05989,-0.1073158 0.153983,-0.1607138 0.282153,-0.1607138 0.101818,0 0.172698,0.036007 0.213424,0.108004 0.04193,0.070638 0.06304,0.1974673 0.06304,0.3808553 v 1.1513507 h -0.23151 v 0.2464967 h 1.140499 V 8.4966388 h -0.27285 V 7.3654419 c 0,-0.2784779 -0.05516,-0.488851 -0.165364,-0.6314861 C 23.708663,6.5899624 23.546841,6.5179484 23.332426,6.5179484 Z m -11.055139,0.058911 v 0.2470134 h 0.206189 l 0.831991,2.1941811 -0.02842,0.075448 c -0.04791,0.134484 -0.09626,0.2258229 -0.144177,0.2733683 -0.04791,0.048903 -0.110759,0.072864 -0.188619,0.072864 -0.08026,0 -0.140657,-0.02467 -0.181384,-0.074931 -0.03952,-0.050262 -0.061,-0.1279448 -0.0646,-0.2325439 l -0.203088,-0.00206 V 9.582885 c 0.08505,0.028526 0.163774,0.050169 0.235645,0.065112 0.07187,0.014944 0.13716,0.02222 0.195853,0.02222 0.137753,0 0.247208,-0.033172 0.328662,-0.099735 0.08146,-0.066563 0.150763,-0.1795446 0.208256,-0.3384806 l 0.84646,-2.4081216 h 0.231511 V 6.5768619 h -0.716753 v 0.2470134 h 0.253215 L 13.635344,8.1054508 13.150102,6.8238753 h 0.22841 V 6.5768619 Z m 6.797001,0 V 6.8238728 H 19.34714 V 7.954553 c 0,0.2784779 0.05481,0.4895596 0.163814,0.633553 0.110202,0.142635 0.272377,0.2139405 0.486792,0.2139405 0.149731,0 0.273846,-0.028212 0.37207,-0.085266 0.09822,-0.057054 0.184985,-0.1500019 0.260449,-0.2790526 v 0.3054077 h 0.908989 V 8.4966388 H 21.267952 V 6.5768595 h -0.869714 v 0.2470134 h 0.232027 v 0.9678995 c 0,0.2336496 -0.03002,0.403764 -0.08992,0.5110798 -0.05869,0.107316 -0.151915,0.1612304 -0.280086,0.1612304 -0.105412,0 -0.178031,-0.036007 -0.217558,-0.1080037 -0.03953,-0.073355 -0.05943,-0.2446948 -0.05943,-0.5136636 V 6.5768595 Z M 11.150224,6.748425 c 0.112601,0 0.192549,0.05765 0.239262,0.1731161 0.04671,0.1141082 0.06976,0.3136598 0.06976,0.5989299 h -0.614433 v -0.03669 c 0,-0.2648935 0.02357,-0.4536242 0.07028,-0.5663737 0.04791,-0.1127496 0.126124,-0.168982 0.235128,-0.168982 z m 6.614066,0 c 0.135361,0 0.230321,0.064928 0.284221,0.1953371 0.0539,0.1290505 0.08061,0.3674441 0.08061,0.7152018 0,0.3477578 -0.02758,0.5868596 -0.08268,0.7172688 -0.0539,0.1304091 -0.147994,0.1958538 -0.282154,0.1958538 -0.135357,-3e-7 -0.23067,-0.066153 -0.28577,-0.1979208 -0.0551,-0.1317677 -0.08268,-0.370161 -0.08268,-0.7152018 0,-0.345041 0.02758,-0.5827257 0.08268,-0.7131349 0.0551,-0.1317675 0.150414,-0.197404 0.28577,-0.197404 z m 7.794357,0.087333 c 0.125777,0 0.217425,0.056749 0.274918,0.1694984 0.05749,0.1127498 0.0863,0.2951028 0.0863,0.5477703 v 0.2139405 c 0,0.2526676 -0.02881,0.4355373 -0.0863,0.5482868 -0.0575,0.1127498 -0.149144,0.168982 -0.274918,0.168982 -0.130569,0 -0.222569,-0.059775 -0.276469,-0.1793171 -0.0539,-0.1195417 -0.08113,-0.3348752 -0.08113,-0.6459554 0,-0.3110801 0.02636,-0.5257051 0.07906,-0.6438884 0.0539,-0.1195416 0.146772,-0.1793171 0.278536,-0.1793171 z"
       sodipodi:insensitive="true" />
  </g>
</svg>
