<?xml version="1.0" encoding="UTF-8" standalone="no"?>
<!-- Generator: Adobe Illustrator 13.0.2, SVG Export Plug-In . SVG Version: 6.00 Build 14948)  -->

<svg
   xmlns:dc="http://purl.org/dc/elements/1.1/"
   xmlns:cc="http://creativecommons.org/ns#"
   xmlns:rdf="http://www.w3.org/1999/02/22-rdf-syntax-ns#"
   xmlns:svg="http://www.w3.org/2000/svg"
   xmlns="http://www.w3.org/2000/svg"
   xmlns:sodipodi="http://sodipodi.sourceforge.net/DTD/sodipodi-0.dtd"
   xmlns:inkscape="http://www.inkscape.org/namespaces/inkscape"
   version="1.1"
   id="Layer_1"
   x="0px"
   y="0px"
   width="88px"
   height="31px"
   viewBox="-0.5 -0.101 88 31"
   enable-background="new -0.5 -0.101 88 31"
   xml:space="preserve"
   sodipodi:docname="cc-zero.svg"
   inkscape:version="0.92.3 (2405546, 2018-03-11)"><metadata
   id="metadata51"><rdf:RDF><cc:Work
       rdf:about=""><dc:format>image/svg+xml</dc:format><dc:type
         rdf:resource="http://purl.org/dc/dcmitype/StillImage" /></cc:Work></rdf:RDF></metadata><defs
   id="defs49">
	
	
	
	
	
	

		
		
		
		
		
		
		
		
		
		
		
		
	
		
		
		
	</defs><sodipodi:namedview
   pagecolor="#ffffff"
   bordercolor="#666666"
   borderopacity="1"
   objecttolerance="10"
   gridtolerance="10"
   guidetolerance="10"
   inkscape:pageopacity="0"
   inkscape:pageshadow="2"
   inkscape:window-width="640"
   inkscape:window-height="480"
   id="namedview47"
   showgrid="false"
   inkscape:zoom="9.7272727"
   inkscape:cx="44.411215"
   inkscape:cy="10.051402"
   inkscape:current-layer="g895" />
<g
   id="g895"><g
     id="g905"><path
       style="display:inline;fill:#ffffff"
       inkscape:connector-curvature="0"
       id="path2"
       d="M 1.803,0.482 84.93,0.631 c 1.161,0 2.198,-0.173 2.198,2.333 L 87.025,30.52 H -0.295 V 2.862 c 0,-1.236 0.118,-2.38 2.098,-2.38 z" /><path
       style="display:inline"
       inkscape:connector-curvature="0"
       d="m 23.771484,4.1621094 c 3.484,2.592 5.752907,6.7434536 5.753907,11.4394526 -10e-4,4.272 -1.879797,8.095079 -4.841797,10.705079 H 87.537109 V 4.1621094 Z m 40.964844,3.3496094 c 0.348,0 0.677422,0.049437 0.982422,0.1484374 0.308,0.1020001 0.582172,0.2494063 0.826172,0.4414063 0.243,0.191 0.442515,0.4289375 0.603516,0.7109375 0.158,0.283 0.258781,0.6076098 0.300781,0.9746094 h -1.339844 c -0.024,-0.163 -0.0762,-0.309453 -0.158203,-0.4394532 -0.082,-0.1319999 -0.185594,-0.2496093 -0.308594,-0.3496093 -0.123,-0.102 -0.262969,-0.178375 -0.417969,-0.234375 -0.156,-0.057 -0.316281,-0.083984 -0.488281,-0.083984 -0.312,0 -0.573969,0.060641 -0.792969,0.1816406 -0.217,0.12 -0.39439,0.2833282 -0.52539,0.4863281 -0.136,0.2040001 -0.232875,0.4363122 -0.296875,0.6953124 -0.062,0.259 -0.0918,0.52864 -0.0918,0.80664 0,0.267 0.0298,0.523391 0.0918,0.775391 0.062,0.251 0.160875,0.476734 0.296875,0.677734 0.134,0.201 0.31239,0.360422 0.52539,0.482422 0.219,0.120001 0.480969,0.181641 0.792969,0.181641 0.424,0 0.752235,-0.129672 0.990234,-0.388672 0.236002,-0.26 0.381547,-0.601344 0.435547,-1.027344 H 67.5 c -0.034,0.396 -0.126484,0.751313 -0.271484,1.070313 -0.146,0.318 -0.342032,0.592406 -0.582032,0.816406 -0.238,0.225 -0.51975,0.394719 -0.84375,0.511719 -0.323,0.118997 -0.679406,0.179687 -1.066406,0.179687 -0.479,0 -0.913875,-0.08395 -1.296875,-0.251953 -0.385,-0.169 -0.708656,-0.398312 -0.972656,-0.695312 -0.265,-0.295 -0.468422,-0.643016 -0.607422,-1.041016 -0.141997,-0.399 -0.210938,-0.829061 -0.210937,-1.289063 -10e-7,-0.472999 0.06894,-0.9114052 0.210937,-1.3164054 0.141,-0.4039998 0.344422,-0.7575937 0.607422,-1.0585937 0.264,-0.302 0.587656,-0.5350312 0.972656,-0.7070313 0.384,-0.1719994 0.814875,-0.2578126 1.296875,-0.2578128 z M 33.404297,7.6601562 h 2.833984 c 0.392,0 0.727953,0.057875 1.001953,0.171875 0.276,0.116 0.499829,0.2690313 0.673828,0.4570313 0.173001,0.189 0.30086,0.4044844 0.38086,0.6464844 0.079,0.242 0.117187,0.4949062 0.117187,0.7539062 0,0.253 -0.03819,0.5020469 -0.117187,0.7480469 -0.08,0.244 -0.207859,0.462391 -0.38086,0.650391 -0.173999,0.189 -0.396828,0.342031 -0.673828,0.457031 -0.274,0.114005 -0.609953,0.171875 -1.001953,0.171875 h -1.451172 v 2.267578 h -1.382812 z m 6.199219,0 h 1.380859 V 11.59375 c 0,0.171 0.01592,0.338859 0.04492,0.505859 0.029,0.165 0.09155,0.3095 0.185547,0.4375 0.094,0.126 0.225578,0.230547 0.392578,0.310547 0.167,0.081 0.390875,0.119141 0.671875,0.119141 0.493,0 0.833484,-0.110031 1.021484,-0.332031 0.188,-0.222 0.28125,-0.567063 0.28125,-1.039063 V 7.6601562 h 1.382813 V 11.59375 c -10e-4,0.855 -0.236891,1.491203 -0.712891,1.908203 -0.476,0.417 -1.133656,0.625 -1.972656,0.625 -0.851,0 -1.509563,-0.208094 -1.976563,-0.621094 -0.466,-0.412 -0.699218,-1.051109 -0.699218,-1.912109 z m 7.003906,0 h 2.96289 c 0.300001,0 0.57236,0.026078 0.81836,0.080078 0.244,0.054 0.456812,0.1407187 0.632812,0.2617187 0.177,0.121 0.312157,0.2824219 0.410157,0.4824219 0.096,0.201 0.144531,0.4491406 0.144531,0.7441406 0,0.318 -0.07084,0.5848746 -0.214844,0.7968756 -0.146,0.212 -0.356672,0.388437 -0.638672,0.523437 0.387,0.112 0.676235,0.308891 0.865235,0.587891 0.188996,0.281 0.285156,0.620625 0.285156,1.015625 0,0.319 -0.0625,0.595125 -0.1875,0.828125 -0.123,0.232 -0.289094,0.422312 -0.496094,0.570312 -0.209,0.148 -0.44489,0.258125 -0.712891,0.328125 -0.268998,0.07 -0.541265,0.103516 -0.822265,0.103516 h -3.046875 z m 6.652344,0 h 1.382812 v 5.1562498 h 3.0625 v 1.167969 h -4.445312 z m 5.605468,0 h 1.382813 V 13.984375 H 58.865234 Z M 34.787109,8.7402344 v 1.8964846 h 1.072266 c 0.158,0 0.312031,-0.01216 0.457031,-0.03516 0.147,-0.023 0.276672,-0.06872 0.388672,-0.136718 0.112,-0.068 0.201531,-0.165063 0.269531,-0.289063 0.068,-0.124 0.09961,-0.2863279 0.09961,-0.4863279 0,-0.2 -0.03161,-0.3632812 -0.09961,-0.4882812 -0.067,-0.124 -0.157531,-0.2211094 -0.269531,-0.2871094 -0.111,-0.068 -0.240672,-0.1127188 -0.388672,-0.1367187 -0.146,-0.024 -0.299031,-0.037109 -0.457031,-0.037109 z m 13.207032,0 v 1.4804686 h 1.40039 c 0.246,0 0.448422,-0.05873 0.607422,-0.177734 0.157998,-0.1180005 0.236328,-0.3091721 0.236328,-0.5761721 0,-0.147 -0.02513,-0.2692813 -0.07813,-0.3632813 -0.053,-0.093 -0.122937,-0.1677031 -0.210937,-0.2207031 -0.09,-0.053 -0.188688,-0.091375 -0.304688,-0.109375 -0.115,-0.022 -0.232469,-0.033203 -0.355469,-0.033203 z m 0.0039,2.4296876 v 1.736328 h 1.478515 v -0.002 c 0.134266,-1.4e-4 0.262381,-0.01319 0.384766,-0.03906 0.123,-0.026 0.230172,-0.07181 0.326172,-0.132812 0.092,-0.062 0.168563,-0.146906 0.226562,-0.253906 0.056,-0.104 0.08203,-0.24125 0.08203,-0.40625 0,-0.324 -0.09053,-0.557313 -0.269532,-0.695313 -0.182,-0.138001 -0.423656,-0.207031 -0.722656,-0.207031 z m -4.820313,5.195312 c 0.487,0 0.920735,0.08486 1.302735,0.25586 0.381,0.171 0.70375,0.405984 0.96875,0.708984 0.264,0.303 0.466467,0.653547 0.605469,1.060547 0.143,0.404 0.21289,0.843453 0.21289,1.314453 0,0.46 -0.06989,0.892063 -0.21289,1.289063 -0.142001,0.397 -0.344469,0.743062 -0.605469,1.039062 -0.266,0.295 -0.58775,0.525313 -0.96875,0.695313 -0.382,0.166003 -0.814735,0.251953 -1.302735,0.251953 -0.481,0 -0.913828,-0.08595 -1.298828,-0.251953 -0.384,-0.17 -0.707656,-0.400313 -0.972656,-0.695313 -0.263,-0.296 -0.465469,-0.644062 -0.605469,-1.039062 -0.139997,-0.397 -0.210937,-0.829063 -0.210937,-1.289063 0,-0.471 0.06994,-0.909453 0.210937,-1.314453 0.141,-0.403 0.343469,-0.757547 0.605469,-1.060547 0.265,-0.303 0.588656,-0.537984 0.972656,-0.708984 0.385,-0.171 0.816828,-0.25586 1.298828,-0.25586 z m -9.773437,0.154297 h 2.710937 c 0.405,0 0.78186,0.06141 1.13086,0.191407 0.35,0.129999 0.65125,0.324937 0.90625,0.585937 0.255,0.26 0.455609,0.585609 0.599609,0.974609 0.144004,0.391 0.214844,0.849094 0.214844,1.371094 0,0.463 -0.05878,0.888344 -0.175781,1.277344 -0.118,0.391 -0.29425,0.726719 -0.53125,1.011719 -0.238,0.281 -0.534625,0.503968 -0.890625,0.667968 -0.354,0.159998 -0.771907,0.242188 -1.253907,0.242188 h -2.710937 z m 14.244141,0 h 1.943359 l 1.470703,4.347657 h 0.01953 l 1.394531,-4.347657 h 1.941407 v 6.322266 H 53.12304 v -4.480469 h -0.01953 l -1.539063,4.480469 H 50.5 l -1.539062,-4.4375 h -0.01953 v 4.4375 H 47.64844 Z m 10.199218,0 h 1.416016 l 2.349609,6.322266 H 60.179682 L 59.703119,21.433594 H 57.35351 l -0.492188,1.408203 h -1.390625 z m 4.816406,0 h 1.382813 v 6.322266 h -1.382813 z m 3.066407,0 h 1.373047 l 2.623046,4.242188 h 0.01758 v -4.242188 h 1.294921 v 6.322266 h -1.384765 l -2.609375,-4.234375 h -0.02148 v 4.234375 h -1.292969 z m -22.554688,1.015625 c -0.311,0 -0.573015,0.06159 -0.791015,0.183594 -0.216,0.12 -0.393344,0.283375 -0.527344,0.484375 -0.135,0.204 -0.232922,0.438266 -0.294922,0.697266 -0.062,0.259 -0.09375,0.525687 -0.09375,0.804687 10e-4,0.266 0.03275,0.525391 0.09375,0.775391 0.062,0.252 0.159922,0.478687 0.294922,0.679687 0.135,0.2 0.312344,0.359422 0.527344,0.482422 0.218,0.121001 0.480015,0.181641 0.791015,0.181641 0.312,0 0.576969,-0.06064 0.792969,-0.181641 0.218,-0.121 0.392344,-0.281422 0.527344,-0.482422 0.134,-0.2 0.232875,-0.427687 0.296875,-0.679687 0.062,-0.25 0.0918,-0.509391 0.0918,-0.775391 0,-0.276 -0.0298,-0.545687 -0.0918,-0.804687 -0.062,-0.262 -0.162875,-0.493266 -0.296875,-0.697266 -0.136,-0.201 -0.310344,-0.364375 -0.527344,-0.484375 -0.216,-0.121004 -0.480969,-0.183594 -0.792969,-0.183594 z M 34.787109,17.6875 v 3.986328 h 1.232422 c 0.199,0 0.392078,-0.03261 0.580078,-0.09961 0.188,-0.062 0.353955,-0.172266 0.501953,-0.322266 0.146001,-0.151 0.263563,-0.346844 0.351563,-0.589844 0.088,-0.241 0.132813,-0.536718 0.132813,-0.886718 0,-0.317 -0.03175,-0.606282 -0.09375,-0.863282 -0.062,-0.256 -0.160735,-0.478203 -0.302735,-0.658203 -0.141,-0.183 -0.325594,-0.323875 -0.558594,-0.421875 -0.231,-0.098 -0.518375,-0.144531 -0.859375,-0.144531 z m 23.746094,0.388672 -0.816406,2.322266 h 1.626953 l -0.792969,-2.322266 z"
       transform="translate(-0.5,-0.101)"
       id="path8" /><path
       style="display:inline"
       inkscape:connector-curvature="0"
       id="path36"
       d="M 85.852,0 H 1.147 C 0.239,0 -0.5,0.744 -0.5,1.658 V 30.627 C -0.5,30.834 -0.333,31 -0.128,31 H 87.128 C 87.333,31 87.5,30.834 87.5,30.627 V 1.658 C 87.5,0.744 86.762,0 85.852,0 Z M 1.147,0.75 h 84.705 c 0.498,0 0.902,0.406 0.902,0.908 0,0 0,20.121 0,28.557 H 0.245 v -8.426 c 0,-8.435 0,-20.131 0,-20.131 0,-0.501 0.405,-0.908 0.902,-0.908 z" /><path
       style="display:inline"
       inkscape:connector-curvature="0"
       d="m 14.695312,3.8496094 c -3.245,0 -5.980937,1.136875 -8.210937,3.421875 -1.128,1.135 -1.9888906,2.43 -2.5878906,3.8749996 -0.585,1.43 -0.8769531,2.921516 -0.8769532,4.478516 0,1.57 0.2919532,3.061516 0.8769532,4.478516 0.585,1.417 1.432875,2.690172 2.546875,3.826172 1.128,1.120999 2.3957343,1.98489 3.8027346,2.58789 1.421,0.59 2.903219,0.884766 4.449218,0.884766 1.547,0 3.049047,-0.305203 4.498047,-0.908203 1.448,-0.604 2.739813,-1.469516 3.882813,-2.603516 1.101,-1.078 1.934234,-2.31675 2.490234,-3.71875 0.571,-1.415 0.853516,-2.932922 0.853516,-4.544922 0,-1.598 -0.280563,-3.111344 -0.851563,-4.527344 -0.571,-1.4289996 -1.407812,-2.6927809 -2.507812,-3.8007809 -2.298,-2.302 -5.091235,-3.4492187 -8.365235,-3.4492187 z m 0.04883,2.1191406 c 2.646,0 4.903203,0.9439375 6.783203,2.8359375 0.906,0.912 1.601219,1.9541405 2.074218,3.1191405 0.473,1.164 0.712891,2.398125 0.712891,3.703125 0,2.707 -0.920141,4.950141 -2.744141,6.744141 -0.948,0.927 -2.013265,1.638906 -3.197265,2.128906 -1.17,0.489 -2.373906,0.732422 -3.628906,0.732422 -1.268,0 -2.481672,-0.238797 -3.638672,-0.716797 -1.1560003,-0.489 -2.1932815,-1.192469 -3.1132815,-2.105469 -0.92,-0.925 -1.6279063,-1.969765 -2.1289063,-3.134765 -0.487,-1.178 -0.7382812,-2.390344 -0.7382812,-3.652344 0,-1.276 0.2512813,-2.49711 0.7382812,-3.662109 0.501,-1.178 1.2099063,-2.2357817 2.1289063,-3.1757818 1.824,-1.876 4.0779535,-2.8164062 6.7519535,-2.8164062 z m -0.02344,2.8789062 c -3.862,0 -4.8339842,3.6692968 -4.8339842,6.7792968 0,3.111 0.9709842,6.777344 4.8339842,6.777344 3.863,0 4.833985,-3.668344 4.833985,-6.777344 0,-3.111 -0.970985,-6.7792967 -4.833985,-6.7792968 z m 0,2.5546878 c 0.157,0 0.298594,0.02455 0.433594,0.06055 0.278,0.24 0.415437,0.572109 0.148437,1.037109 l -2.572265,4.759766 c -0.079,-0.603 -0.0918,-1.193813 -0.0918,-1.632813 0,-1.37 0.09503,-4.224609 2.082031,-4.224609 z m 1.925781,2.193359 c 0.137,0.731 0.154297,1.492297 0.154297,2.029297 0,1.37 -0.09408,4.222656 -2.080078,4.222656 -0.156,0 -0.301547,-0.01683 -0.435547,-0.04883 -0.025,-0.01 -0.04727,-0.01939 -0.07226,-0.02539 -0.04,-0.012 -0.08505,-0.02402 -0.123047,-0.04102 -0.442,-0.188 -0.72036,-0.530672 -0.31836,-1.138672 z"
       transform="translate(-0.5,-0.101)"
       id="text2809_4_" /></g></g>
</svg>