<?xml version="1.0" encoding="UTF-8" standalone="no"?>
<!-- Created with Inkscape (http://www.inkscape.org/) -->

<svg
   xmlns:dc="http://purl.org/dc/elements/1.1/"
   xmlns:cc="http://creativecommons.org/ns#"
   xmlns:rdf="http://www.w3.org/1999/02/22-rdf-syntax-ns#"
   xmlns:svg="http://www.w3.org/2000/svg"
   xmlns="http://www.w3.org/2000/svg"
   xmlns:sodipodi="http://sodipodi.sourceforge.net/DTD/sodipodi-0.dtd"
   xmlns:inkscape="http://www.inkscape.org/namespaces/inkscape"
   width="31.25"
   height="15.972656"
   viewBox="0 0 8.2682292 4.2260988"
   version="1.1"
   id="svg8"
   inkscape:version="0.92.3 (2405546, 2018-03-11)"
   sodipodi:docname="lang.svg">
  <defs
     id="defs2" />
  <sodipodi:namedview
     id="base"
     pagecolor="#e1e1e1"
     bordercolor="#666666"
     borderopacity="1.0"
     inkscape:pageopacity="0"
     inkscape:pageshadow="2"
     inkscape:zoom="15.839192"
     inkscape:cx="19.831815"
     inkscape:cy="15.059924"
     inkscape:document-units="mm"
     inkscape:current-layer="g844"
     showgrid="false"
     showborder="true"
     inkscape:showpageshadow="false"
     units="px"
     fit-margin-top="0"
     fit-margin-left="0"
     fit-margin-right="0"
     fit-margin-bottom="0"
     inkscape:snap-nodes="true"
     inkscape:snap-global="true"
     inkscape:snap-bbox="false"
     inkscape:snap-bbox-midpoints="false"
     inkscape:bbox-nodes="false"
     inkscape:snap-page="false"
     inkscape:object-nodes="false"
     inkscape:bbox-paths="false" />
  <metadata
     id="metadata5">
    <rdf:RDF>
      <cc:Work
         rdf:about="">
        <dc:format>image/svg+xml</dc:format>
        <dc:type
           rdf:resource="http://purl.org/dc/dcmitype/StillImage" />
        <dc:title></dc:title>
      </cc:Work>
    </rdf:RDF>
  </metadata>
  <g
     inkscape:label="Layer 1"
     id="layer1"
     transform="translate(0.06562417,-294.02074)"
     style="display:inline"
     inkscape:groupmode="layer">
    <g
       id="g844"
       transform="matrix(0.93462265,0,0,0.93462265,2.5074238,17.853693)"
       style="display:inline;stroke-width:1.06995058"
       inkscape:groupmode="layer">
      <path
         style="opacity:1;fill:#d2008e;fill-opacity:1;stroke:none;stroke-width:1.99999988;stroke-linecap:round;stroke-linejoin:round;stroke-miterlimit:4;stroke-dasharray:none;stroke-opacity:1;paint-order:normal"
         d="m 1.90625,4.2597656 c -1.75598064,0 -3.1679688,1.4139413 -3.1679688,3.1699219 V 17.0625 c 0,1.755981 1.41198816,3.169922 3.1679688,3.169922 h 24.912109 c 1.755981,0 3.169922,-1.413941 3.169922,-3.169922 V 7.4296875 c 0,-1.7559806 -1.413941,-3.1699219 -3.169922,-3.1699219 z M 4.9902344,6.421875 C 5.4944766,7.0269806 5.9310035,7.7151025 6.3007812,8.4882812 H 11.191406 V 9.4472656 H 9.2246094 c -0.268929,1.2773984 -0.6968736,2.3868734 -1.2851563,3.3281254 -0.5882827,0.941251 -1.0848874,1.528412 -1.4882812,1.763671 1.2101815,0.907624 2.8076626,1.714001 4.7910161,2.419922 l -0.605469,1.109375 C 8.7542137,17.42966 7.0576488,16.507016 5.5449219,15.296875 4.1330434,16.338942 2.3849826,17.246353 0.30078125,18.019531 L -0.40625,17.060547 C 1.6107193,16.35459 3.3092379,15.513943 4.6875,14.539062 3.3092379,13.194407 2.3331935,11.497842 1.7617188,9.4472656 H -0.10351562 V 8.4882812 H 5.0898438 C 4.7872983,7.9840619 4.4689729,7.4979343 4.1328125,7.0273438 Z m 18.5234376,0 h 1.347656 l 4.269531,11.648437 h -1.507812 l -1.269531,-3.595703 h -4.324219 l -1.285156,3.595703 h -1.492188 z m -6.810547,0.025391 h 1.412109 l -4.316406,11.599609 h -1.419922 z m 7.476563,1.5625 c -0.03693,0.1632125 -0.07952,0.3319889 -0.126954,0.5058594 -0.04761,0.1746788 -0.09497,0.3439077 -0.142578,0.5078125 -0.04761,0.1588535 -0.09497,0.3079009 -0.142578,0.4453125 -0.04232,0.1324662 -0.07957,0.2423075 -0.111328,0.3320312 l -1.150391,3.3671874 h 3.378907 L 24.710938,9.8027344 C 24.679195,9.707712 24.639407,9.5924897 24.591797,9.4550781 24.549482,9.3174546 24.504641,9.1683718 24.457031,9.0097656 24.409421,8.8510535 24.362063,8.6867816 24.314453,8.5175781 24.266847,8.3432173 24.222006,8.1736705 24.179688,8.009766 Z M 2.8710938,9.4492188 C 3.4425681,11.2645 4.349952,12.726613 5.59375,13.835938 6.8375475,12.760241 7.6782245,11.298129 8.1152344,9.4492188 Z"
         transform="matrix(0.28309108,0,0,0.28309108,-2.3958527,294.27918)"
         id="rect847"
         inkscape:connector-curvature="0" />
    </g>
  </g>
</svg>
