<?xml version="1.0" encoding="UTF-8" standalone="no"?>
<!-- Created with Inkscape (http://www.inkscape.org/) -->

<svg
   xmlns:dc="http://purl.org/dc/elements/1.1/"
   xmlns:cc="http://creativecommons.org/ns#"
   xmlns:rdf="http://www.w3.org/1999/02/22-rdf-syntax-ns#"
   xmlns:svg="http://www.w3.org/2000/svg"
   xmlns="http://www.w3.org/2000/svg"
   xmlns:sodipodi="http://sodipodi.sourceforge.net/DTD/sodipodi-0.dtd"
   xmlns:inkscape="http://www.inkscape.org/namespaces/inkscape"
   width="30"
   height="15"
   viewBox="0 0 7.9375 3.9687502"
   version="1.1"
   id="svg8"
   inkscape:version="0.92.5 (2060ec1f9f, 2020-04-08)"
   sodipodi:docname="mirror.svg">
  <defs
     id="defs2">
    <clipPath
       id="clipPath828"
       clipPathUnits="userSpaceOnUse">
      <rect
         y="286.44974"
         x="21.332031"
         height="6.7799478"
         width="6.6807284"
         id="rect830"
         style="opacity:0.47600002;fill:#008000;fill-opacity:1;stroke:none;stroke-width:9.10899925;stroke-linecap:square;stroke-linejoin:miter;stroke-miterlimit:4;stroke-dasharray:none;stroke-opacity:1" />
    </clipPath>
    <clipPath
       id="clipPath828-7"
       clipPathUnits="userSpaceOnUse">
      <rect
         y="286.44974"
         x="21.332031"
         height="6.7799478"
         width="6.6807284"
         id="rect830-5"
         style="opacity:0.47600002;fill:#008000;fill-opacity:1;stroke:none;stroke-width:9.10899925;stroke-linecap:square;stroke-linejoin:miter;stroke-miterlimit:4;stroke-dasharray:none;stroke-opacity:1" />
    </clipPath>
    <clipPath
       id="clipPath828-75"
       clipPathUnits="userSpaceOnUse">
      <rect
         y="286.44974"
         x="21.332031"
         height="6.7799478"
         width="6.6807284"
         id="rect830-3"
         style="opacity:0.47600002;fill:#008000;fill-opacity:1;stroke:none;stroke-width:9.10899925;stroke-linecap:square;stroke-linejoin:miter;stroke-miterlimit:4;stroke-dasharray:none;stroke-opacity:1" />
    </clipPath>
    <clipPath
       id="clipPath828-7-5"
       clipPathUnits="userSpaceOnUse">
      <rect
         y="286.44974"
         x="21.332031"
         height="6.7799478"
         width="6.6807284"
         id="rect830-5-6"
         style="opacity:0.47600002;fill:#008000;fill-opacity:1;stroke:none;stroke-width:9.10899925;stroke-linecap:square;stroke-linejoin:miter;stroke-miterlimit:4;stroke-dasharray:none;stroke-opacity:1" />
    </clipPath>
  </defs>
  <sodipodi:namedview
     id="base"
     pagecolor="#ffffff"
     bordercolor="#666666"
     borderopacity="1.0"
     inkscape:pageopacity="0"
     inkscape:pageshadow="2"
     inkscape:zoom="32"
     inkscape:cx="15.312744"
     inkscape:cy="5.1011005"
     inkscape:document-units="mm"
     inkscape:current-layer="svg8"
     showgrid="false"
     showborder="true"
     inkscape:showpageshadow="false"
     units="px"
     fit-margin-top="0"
     fit-margin-left="0"
     fit-margin-right="0"
     fit-margin-bottom="0"
     inkscape:snap-nodes="false"
     inkscape:snap-global="true"
     inkscape:snap-bbox="false"
     inkscape:snap-bbox-midpoints="false"
     inkscape:bbox-nodes="false"
     inkscape:snap-page="false"
     inkscape:object-nodes="true"
     inkscape:bbox-paths="false"
     inkscape:window-width="1920"
     inkscape:window-height="1054"
     inkscape:window-x="0"
     inkscape:window-y="26"
     inkscape:window-maximized="1"
     inkscape:object-paths="true"
     inkscape:snap-intersection-paths="true"
     inkscape:snap-smooth-nodes="true"
     inkscape:snap-midpoints="true" />
  <metadata
     id="metadata5">
    <rdf:RDF>
      <cc:Work
         rdf:about="">
        <dc:format>image/svg+xml</dc:format>
        <dc:type
           rdf:resource="http://purl.org/dc/dcmitype/StillImage" />
        <dc:title />
      </cc:Work>
    </rdf:RDF>
  </metadata>
  <path
     style="display:inline;fill:#001c38;fill-opacity:1;stroke-width:3.18309784;stroke-linecap:butt;stroke-linejoin:round;stroke-miterlimit:4;stroke-dasharray:none"
     d="M 0 0 L 0 15 L 30 15 L 30 0 L 0 0 z M 3.5273438 2.0019531 C 4.3008475 2.0017373 4.9279502 2.62884 4.9277344 3.4023438 C 4.9268719 4.1750848 4.3000848 4.8009974 3.5273438 4.8007812 C 2.7546024 4.8009974 2.1278156 4.1750848 2.1269531 3.4023438 C 2.1267372 2.62884 2.75384 2.0017372 3.5273438 2.0019531 z M 7.9492188 2.0019531 C 8.7227224 2.0017373 9.3498252 2.62884 9.3496094 3.4023438 C 9.3487469 4.1750848 8.7219601 4.8009974 7.9492188 4.8007812 C 7.1764773 4.8009974 6.5496906 4.1750848 6.5488281 3.4023438 C 6.5486119 2.62884 7.175715 2.0017372 7.9492188 2.0019531 z M 22.050781 2.0019531 C 22.824285 2.0017372 23.451388 2.62884 23.451172 3.4023438 C 23.450309 4.1750849 22.823523 4.8009974 22.050781 4.8007812 C 21.27804 4.8009974 20.651253 4.1750849 20.650391 3.4023438 C 20.650175 2.62884 21.277278 2.0017373 22.050781 2.0019531 z M 26.472656 2.0019531 C 27.24616 2.0017372 27.873263 2.62884 27.873047 3.4023438 C 27.872184 4.1750849 27.245398 4.8009974 26.472656 4.8007812 C 25.699915 4.8009974 25.073128 4.1750849 25.072266 3.4023438 C 25.07205 2.62884 25.699152 2.0017373 26.472656 2.0019531 z M 3.5273438 10.199219 C 4.3008471 10.199003 4.9279498 10.826105 4.9277344 11.599609 C 4.9268723 12.37235 4.3000852 12.998263 3.5273438 12.998047 C 2.7546022 12.998263 2.1278152 12.37235 2.1269531 11.599609 C 2.1267376 10.826105 2.7538402 10.199003 3.5273438 10.199219 z M 7.9492188 10.199219 C 8.722722 10.199003 9.3498248 10.826105 9.3496094 11.599609 C 9.3487473 12.37235 8.7219601 12.998263 7.9492188 12.998047 C 7.176477 12.998263 6.5496902 12.37235 6.5488281 11.599609 C 6.5486123 10.826105 7.175715 10.199003 7.9492188 10.199219 z M 22.050781 10.199219 C 22.824285 10.199003 23.451388 10.826105 23.451172 11.599609 C 23.45031 12.37235 22.823523 12.998263 22.050781 12.998047 C 21.27804 12.998263 20.651253 12.37235 20.650391 11.599609 C 20.650175 10.826105 21.277278 10.199003 22.050781 10.199219 z M 26.472656 10.199219 C 27.24616 10.199003 27.873262 10.826105 27.873047 11.599609 C 27.872185 12.37235 27.245398 12.998263 26.472656 12.998047 C 25.699914 12.998263 25.073127 12.37235 25.072266 11.599609 C 25.07205 10.826105 25.699153 10.199003 26.472656 10.199219 z "
     transform="scale(0.26458333)"
     id="rect1024" />
  <path
     style="display:inline;opacity:1;fill:#d2008e;fill-opacity:1;stroke:none;stroke-width:1.19999969;stroke-linecap:round;stroke-linejoin:round;stroke-miterlimit:4;stroke-dasharray:none;stroke-opacity:1;paint-order:normal"
     d="M 1.0683594 0 C 0.47516186 0 -1.4802974e-16 0.47906452 0 1.0722656 L 0 5.7324219 C 0 6.3256233 0.47516186 6.8027344 1.0683594 6.8027344 L 12.523438 6.8027344 L 12.523438 0 L 1.0683594 0 z M 3.5273438 2.0019531 C 4.3008476 2.0017373 4.9279502 2.62884 4.9277344 3.4023438 C 4.9268719 4.1750849 4.3000849 4.8009974 3.5273438 4.8007812 C 2.7546024 4.8009974 2.1278156 4.1750849 2.1269531 3.4023438 C 2.1267372 2.62884 2.75384 2.0017372 3.5273438 2.0019531 z M 7.9492188 2.0019531 C 8.7227225 2.0017373 9.3498252 2.62884 9.3496094 3.4023438 C 9.3487469 4.1750849 8.7219602 4.8009974 7.9492188 4.8007812 C 7.1764773 4.8009974 6.5496906 4.1750849 6.5488281 3.4023438 C 6.5486119 2.62884 7.175715 2.0017372 7.9492188 2.0019531 z M 1.0683594 8.1972656 C 0.47516186 8.1972656 -1.4802974e-16 8.6743771 0 9.2675781 L 0 13.927734 C 0 14.520937 0.47516186 15 1.0683594 15 L 12.523438 15 L 12.523438 8.1972656 L 1.0683594 8.1972656 z M 3.5273438 10.199219 C 4.3008472 10.199003 4.9279498 10.826105 4.9277344 11.599609 C 4.9268723 12.37235 4.3000853 12.998263 3.5273438 12.998047 C 2.7546022 12.998263 2.1278152 12.37235 2.1269531 11.599609 C 2.1267376 10.826105 2.7538402 10.199003 3.5273438 10.199219 z M 7.9492188 10.199219 C 8.7227221 10.199003 9.3498248 10.826105 9.3496094 11.599609 C 9.3487473 12.37235 8.7219602 12.998263 7.9492188 12.998047 C 7.176477 12.998263 6.5496902 12.37235 6.5488281 11.599609 C 6.5486123 10.826105 7.175715 10.199003 7.9492188 10.199219 z "
     transform="scale(0.26458333)"
     id="path833" />
  <rect
     style="display:inline;opacity:1;fill:#3798fb;fill-opacity:1;stroke:none;stroke-width:0.28210619;stroke-linecap:round;stroke-linejoin:round;stroke-miterlimit:4;stroke-dasharray:none;stroke-opacity:1;paint-order:normal"
     id="rect827"
     width="0.39687499"
     height="3.96875"
     x="3.7703125"
     y="-4.4408921e-16"
     ry="0.1984375" />
  <path
     id="path885"
     d="M 7.6548299,0 C 7.8117801,0 7.9375,0.12675249 7.9375,0.2837036 v 1.2329997 c 0,0.1569512 -0.1257199,0.2831868 -0.2826701,0.2831868 H 4.6240071 V 0 Z M 7.0042237,0.52968342 c -0.2046563,-5.71e-5 -0.3705771,0.16586382 -0.37052,0.37052003 2.282e-4,0.20445445 0.1660655,0.37006045 0.37052,0.37000325 0.2044545,5.72e-5 0.3702918,-0.1655488 0.37052,-0.37000325 5.71e-5,-0.20465621 -0.1658638,-0.37057716 -0.37052,-0.37052003 z m -1.1699545,0 C 5.6296131,0.52962632 5.4636921,0.69554724 5.4637492,0.90020345 5.4639774,1.1046579 5.6298148,1.2702639 5.8342692,1.2702067 6.0387238,1.2702639 6.2045611,1.1046579 6.2047893,0.90020345 6.2048465,0.69554724 6.0389255,0.52962629 5.8342692,0.52968342 Z M 7.6548299,2.1688598 c 0.1569502,0 0.2826701,0.1262358 0.2826701,0.2831869 V 3.6850462 C 7.9375,3.8419979 7.8117801,3.96875 7.6548299,3.96875 H 4.6240071 V 2.1688598 Z M 7.0042237,2.6985433 c -0.2046561,-5.71e-5 -0.370577,0.1658636 -0.37052,0.3705199 2.28e-4,0.2044544 0.1660654,0.3700605 0.37052,0.3700034 0.2044545,5.71e-5 0.3702919,-0.165549 0.37052,-0.3700034 5.7e-5,-0.2046563 -0.1658639,-0.370577 -0.37052,-0.3705199 z m -1.1699545,0 c -0.204656,-5.71e-5 -0.370577,0.1658636 -0.37052,0.3705199 2.281e-4,0.2044544 0.1660656,0.3700605 0.37052,0.3700034 0.2044546,5.71e-5 0.370292,-0.165549 0.3705201,-0.3700034 5.71e-5,-0.2046563 -0.1658638,-0.370577 -0.3705201,-0.3705199 z"
     style="display:inline;opacity:1;fill:#3798fb;fill-opacity:1;stroke:none;stroke-width:0.31749991;stroke-linecap:round;stroke-linejoin:round;stroke-miterlimit:4;stroke-dasharray:none;stroke-opacity:1;paint-order:normal"
     inkscape:connector-curvature="0" />
</svg>
