<?xml version="1.0" encoding="UTF-8" standalone="no"?>
<!-- Created with Inkscape (http://www.inkscape.org/) -->

<svg
   xmlns:dc="http://purl.org/dc/elements/1.1/"
   xmlns:cc="http://creativecommons.org/ns#"
   xmlns:rdf="http://www.w3.org/1999/02/22-rdf-syntax-ns#"
   xmlns:svg="http://www.w3.org/2000/svg"
   xmlns="http://www.w3.org/2000/svg"
   xmlns:sodipodi="http://sodipodi.sourceforge.net/DTD/sodipodi-0.dtd"
   xmlns:inkscape="http://www.inkscape.org/namespaces/inkscape"
   width="30"
   height="15"
   viewBox="0 0 7.9375 3.9687502"
   version="1.1"
   id="svg8"
   inkscape:version="0.92.5 (2060ec1f9f, 2020-04-08)"
   sodipodi:docname="mirror.svg">
  <defs
     id="defs2">
    <clipPath
       id="clipPath828"
       clipPathUnits="userSpaceOnUse">
      <rect
         y="286.44974"
         x="21.332031"
         height="6.7799478"
         width="6.6807284"
         id="rect830"
         style="opacity:0.47600002;fill:#008000;fill-opacity:1;stroke:none;stroke-width:9.10899925;stroke-linecap:square;stroke-linejoin:miter;stroke-miterlimit:4;stroke-dasharray:none;stroke-opacity:1" />
    </clipPath>
    <clipPath
       id="clipPath828-7"
       clipPathUnits="userSpaceOnUse">
      <rect
         y="286.44974"
         x="21.332031"
         height="6.7799478"
         width="6.6807284"
         id="rect830-5"
         style="opacity:0.47600002;fill:#008000;fill-opacity:1;stroke:none;stroke-width:9.10899925;stroke-linecap:square;stroke-linejoin:miter;stroke-miterlimit:4;stroke-dasharray:none;stroke-opacity:1" />
    </clipPath>
    <clipPath
       id="clipPath828-75"
       clipPathUnits="userSpaceOnUse">
      <rect
         y="286.44974"
         x="21.332031"
         height="6.7799478"
         width="6.6807284"
         id="rect830-3"
         style="opacity:0.47600002;fill:#008000;fill-opacity:1;stroke:none;stroke-width:9.10899925;stroke-linecap:square;stroke-linejoin:miter;stroke-miterlimit:4;stroke-dasharray:none;stroke-opacity:1" />
    </clipPath>
    <clipPath
       id="clipPath828-7-5"
       clipPathUnits="userSpaceOnUse">
      <rect
         y="286.44974"
         x="21.332031"
         height="6.7799478"
         width="6.6807284"
         id="rect830-5-6"
         style="opacity:0.47600002;fill:#008000;fill-opacity:1;stroke:none;stroke-width:9.10899925;stroke-linecap:square;stroke-linejoin:miter;stroke-miterlimit:4;stroke-dasharray:none;stroke-opacity:1" />
    </clipPath>
  </defs>
  <sodipodi:namedview
     id="base"
     pagecolor="#ffffff"
     bordercolor="#666666"
     borderopacity="1.0"
     inkscape:pageopacity="0"
     inkscape:pageshadow="2"
     inkscape:zoom="32"
     inkscape:cx="14.453369"
     inkscape:cy="4.5073505"
     inkscape:document-units="mm"
     inkscape:current-layer="svg8"
     showgrid="false"
     showborder="true"
     inkscape:showpageshadow="false"
     units="px"
     fit-margin-top="0"
     fit-margin-left="0"
     fit-margin-right="0"
     fit-margin-bottom="0"
     inkscape:snap-nodes="false"
     inkscape:snap-global="true"
     inkscape:snap-bbox="false"
     inkscape:snap-bbox-midpoints="false"
     inkscape:bbox-nodes="false"
     inkscape:snap-page="false"
     inkscape:object-nodes="true"
     inkscape:bbox-paths="false"
     inkscape:window-width="1920"
     inkscape:window-height="1054"
     inkscape:window-x="0"
     inkscape:window-y="26"
     inkscape:window-maximized="1"
     inkscape:object-paths="true"
     inkscape:snap-intersection-paths="true"
     inkscape:snap-smooth-nodes="true"
     inkscape:snap-midpoints="true" />
  <metadata
     id="metadata5">
    <rdf:RDF>
      <cc:Work
         rdf:about="">
        <dc:format>image/svg+xml</dc:format>
        <dc:type
           rdf:resource="http://purl.org/dc/dcmitype/StillImage" />
        <dc:title />
      </cc:Work>
    </rdf:RDF>
  </metadata>
  <path
     style="display:inline;fill:#001c38;fill-opacity:1;stroke-width:3.18309784;stroke-linecap:butt;stroke-linejoin:round;stroke-miterlimit:4;stroke-dasharray:none"
     d="M 0 0 L 0 15 L 30 15 L 30 0 L 0 0 z M 1.34375 1.1875 L 10.3125 1.1875 L 10.3125 5.53125 L 1.34375 5.53125 L 1.34375 1.1875 z M 19.78125 1.1875 L 28.75 1.1875 L 28.75 5.53125 L 19.78125 5.53125 L 19.78125 1.1875 z M 1.34375 9.4375 L 10.3125 9.4375 L 10.3125 13.78125 L 1.34375 13.78125 L 1.34375 9.4375 z M 19.78125 9.4375 L 28.75 9.4375 L 28.75 13.78125 L 19.78125 13.78125 L 19.78125 9.4375 z "
     transform="scale(0.26458333)"
     id="rect1024" />
  <path
     style="display:inline;opacity:1;fill:#d2008e;fill-opacity:1;stroke:none;stroke-width:1.19999969;stroke-linecap:round;stroke-linejoin:round;stroke-miterlimit:4;stroke-dasharray:none;stroke-opacity:1;paint-order:normal"
     d="M 1.0683594,0 C 0.47516186,0 0,0.47906452 0,1.0722656 V 5.7324219 C 0,6.3256233 0.47516186,6.8027344 1.0683594,6.8027344 H 12.523438 V 0 Z M 3.5273438,2.0019531 C 4.3008476,2.0017373 4.9279502,2.62884 4.9277344,3.4023438 4.9268719,4.1750849 4.3000849,4.8009974 3.5273438,4.8007812 2.7546024,4.8009974 2.1278156,4.1750849 2.1269531,3.4023438 2.1267372,2.62884 2.75384,2.0017372 3.5273438,2.0019531 Z m 4.421875,0 C 8.7227225,2.0017373 9.3498252,2.62884 9.3496094,3.4023438 9.3487469,4.1750849 8.7219602,4.8009974 7.9492188,4.8007812 7.1764773,4.8009974 6.5496906,4.1750849 6.5488281,3.4023438 6.5486119,2.62884 7.175715,2.0017372 7.9492188,2.0019531 Z M 1.0683594,8.1972656 C 0.47516186,8.1972656 0,8.6743771 0,9.2675781 V 13.927734 C 0,14.520937 0.47516186,15 1.0683594,15 H 12.523438 V 8.1972656 Z m 2.4589844,2.0019534 c 0.7735034,-2.16e-4 1.400606,0.626886 1.4003906,1.40039 -8.621e-4,0.772741 -0.6276491,1.398654 -1.4003906,1.398438 -0.7727416,2.16e-4 -1.3995286,-0.625697 -1.4003907,-1.398438 -2.155e-4,-0.773504 0.6268871,-1.400606 1.4003907,-1.40039 z m 4.421875,0 c 0.7735033,-2.16e-4 1.400606,0.626886 1.4003906,1.40039 C 9.3487473,12.37235 8.7219602,12.998263 7.9492188,12.998047 7.176477,12.998263 6.5496902,12.37235 6.5488281,11.599609 6.5486123,10.826105 7.175715,10.199003 7.9492188,10.199219 Z"
     transform="scale(0.26458333)"
     id="path833"
     inkscape:connector-curvature="0" />
  <rect
     style="display:inline;opacity:1;fill:#3798fb;fill-opacity:1;stroke:none;stroke-width:0.28210619;stroke-linecap:round;stroke-linejoin:round;stroke-miterlimit:4;stroke-dasharray:none;stroke-opacity:1;paint-order:normal"
     id="rect827"
     width="0.39687499"
     height="3.96875"
     x="3.7703125"
     y="-4.4408921e-16"
     ry="0.1984375" />
  <path
     id="path885"
     d="M 7.6548299,0 C 7.8117801,0 7.9375,0.12675249 7.9375,0.2837036 v 1.2329997 c 0,0.1569512 -0.1257199,0.2831868 -0.2826701,0.2831868 H 4.6240071 V 0 Z M 7.0042237,0.52968342 c -0.2046563,-5.71e-5 -0.3705771,0.16586382 -0.37052,0.37052003 2.282e-4,0.20445445 0.1660655,0.37006045 0.37052,0.37000325 0.2044545,5.72e-5 0.3702918,-0.1655488 0.37052,-0.37000325 5.71e-5,-0.20465621 -0.1658638,-0.37057716 -0.37052,-0.37052003 z m -1.1699545,0 C 5.6296131,0.52962632 5.4636921,0.69554724 5.4637492,0.90020345 5.4639774,1.1046579 5.6298148,1.2702639 5.8342692,1.2702067 6.0387238,1.2702639 6.2045611,1.1046579 6.2047893,0.90020345 6.2048465,0.69554724 6.0389255,0.52962629 5.8342692,0.52968342 Z M 7.6548299,2.1688598 c 0.1569502,0 0.2826701,0.1262358 0.2826701,0.2831869 V 3.6850462 C 7.9375,3.8419979 7.8117801,3.96875 7.6548299,3.96875 H 4.6240071 V 2.1688598 Z M 7.0042237,2.6985433 c -0.2046561,-5.71e-5 -0.370577,0.1658636 -0.37052,0.3705199 2.28e-4,0.2044544 0.1660654,0.3700605 0.37052,0.3700034 0.2044545,5.71e-5 0.3702919,-0.165549 0.37052,-0.3700034 5.7e-5,-0.2046563 -0.1658639,-0.370577 -0.37052,-0.3705199 z m -1.1699545,0 c -0.204656,-5.71e-5 -0.370577,0.1658636 -0.37052,0.3705199 2.281e-4,0.2044544 0.1660656,0.3700605 0.37052,0.3700034 0.2044546,5.71e-5 0.370292,-0.165549 0.3705201,-0.3700034 5.71e-5,-0.2046563 -0.1658638,-0.370577 -0.3705201,-0.3705199 z"
     style="display:inline;opacity:1;fill:#3798fb;fill-opacity:1;stroke:none;stroke-width:0.31749991;stroke-linecap:round;stroke-linejoin:round;stroke-miterlimit:4;stroke-dasharray:none;stroke-opacity:1;paint-order:normal"
     inkscape:connector-curvature="0" />
</svg>
