<?xml version="1.0" encoding="UTF-8" standalone="no"?>
<!-- Created with Inkscape (http://www.inkscape.org/) -->

<svg
   xmlns:dc="http://purl.org/dc/elements/1.1/"
   xmlns:cc="http://creativecommons.org/ns#"
   xmlns:rdf="http://www.w3.org/1999/02/22-rdf-syntax-ns#"
   xmlns:svg="http://www.w3.org/2000/svg"
   xmlns="http://www.w3.org/2000/svg"
   xmlns:sodipodi="http://sodipodi.sourceforge.net/DTD/sodipodi-0.dtd"
   xmlns:inkscape="http://www.inkscape.org/namespaces/inkscape"
   width="30"
   height="19"
   viewBox="0 0 7.9375 5.0270836"
   version="1.1"
   id="svg8"
   inkscape:version="0.92.5 (2060ec1f9f, 2020-04-08)"
   sodipodi:docname="mirror.svg">
  <defs
     id="defs2">
    <clipPath
       id="clipPath828"
       clipPathUnits="userSpaceOnUse">
      <rect
         y="286.44974"
         x="21.332031"
         height="6.7799478"
         width="6.6807284"
         id="rect830"
         style="opacity:0.47600002;fill:#008000;fill-opacity:1;stroke:none;stroke-width:9.10899925;stroke-linecap:square;stroke-linejoin:miter;stroke-miterlimit:4;stroke-dasharray:none;stroke-opacity:1" />
    </clipPath>
    <clipPath
       id="clipPath828-7"
       clipPathUnits="userSpaceOnUse">
      <rect
         y="286.44974"
         x="21.332031"
         height="6.7799478"
         width="6.6807284"
         id="rect830-5"
         style="opacity:0.47600002;fill:#008000;fill-opacity:1;stroke:none;stroke-width:9.10899925;stroke-linecap:square;stroke-linejoin:miter;stroke-miterlimit:4;stroke-dasharray:none;stroke-opacity:1" />
    </clipPath>
  </defs>
  <sodipodi:namedview
     id="base"
     pagecolor="#ffffff"
     bordercolor="#666666"
     borderopacity="1.0"
     inkscape:pageopacity="0"
     inkscape:pageshadow="2"
     inkscape:zoom="32"
     inkscape:cx="13.187744"
     inkscape:cy="9.1862981"
     inkscape:document-units="mm"
     inkscape:current-layer="svg8"
     showgrid="false"
     showborder="true"
     inkscape:showpageshadow="false"
     units="px"
     fit-margin-top="0"
     fit-margin-left="0"
     fit-margin-right="0"
     fit-margin-bottom="0"
     inkscape:snap-nodes="false"
     inkscape:snap-global="true"
     inkscape:snap-bbox="false"
     inkscape:snap-bbox-midpoints="false"
     inkscape:bbox-nodes="false"
     inkscape:snap-page="false"
     inkscape:object-nodes="false"
     inkscape:bbox-paths="false"
     inkscape:window-width="1920"
     inkscape:window-height="1054"
     inkscape:window-x="0"
     inkscape:window-y="26"
     inkscape:window-maximized="1" />
  <metadata
     id="metadata5">
    <rdf:RDF>
      <cc:Work
         rdf:about="">
        <dc:format>image/svg+xml</dc:format>
        <dc:type
           rdf:resource="http://purl.org/dc/dcmitype/StillImage" />
        <dc:title></dc:title>
      </cc:Work>
    </rdf:RDF>
  </metadata>
  <path
     style="display:inline;opacity:1;fill:#d2008e;fill-opacity:1;stroke:none;stroke-width:0.31749991;stroke-linecap:round;stroke-linejoin:round;stroke-miterlimit:4;stroke-dasharray:none;stroke-opacity:1;paint-order:normal"
     d="M 0.2829214,0.52921261 C 0.12597125,0.52921261 0,0.65566711 0,0.81261828 V 2.0457314 C 0,2.2026826 0.12597125,2.329137 0.2829214,2.329137 H 3.3135293 V 0.52921261 Z M 0.90068988,1.1023326 A 0.32708828,0.32708828 0 0 1 1.2277722,1.4294132 0.32708828,0.32708828 0 0 1 0.90068988,1.7565031 0.32708828,0.32708828 0 0 1 0.57360746,1.4294132 0.32708828,0.32708828 0 0 1 0.90068988,1.1023326 Z m 0.91379252,0 A 0.32708828,0.32708828 0 0 1 2.1415648,1.4294132 0.32708828,0.32708828 0 0 1 1.8144824,1.7565031 0.32708828,0.32708828 0 0 1 1.4874,1.4294132 0.32708828,0.32708828 0 0 1 1.8144824,1.1023326 Z M 0.2829214,2.6979578 C 0.12597125,2.6979578 0,2.8244123 0,2.9813635 v 1.2331037 c 0,0.1569512 0.12597125,0.2834056 0.2829214,0.2834056 h 3.0306079 v -1.799915 z m 0.61776848,0.572634 A 0.32708828,0.32708828 0 0 1 1.2277722,3.5976723 0.32708828,0.32708828 0 0 1 0.90068988,3.9247529 0.32708828,0.32708828 0 0 1 0.57360746,3.5976723 0.32708828,0.32708828 0 0 1 0.90068988,3.2705918 Z m 0.91379252,0 A 0.32708828,0.32708828 0 0 1 2.1415648,3.5976723 0.32708828,0.32708828 0 0 1 1.8144824,3.9247529 0.32708828,0.32708828 0 0 1 1.4874,3.5976723 0.32708828,0.32708828 0 0 1 1.8144824,3.2705918 Z"
     id="path856"
     inkscape:connector-curvature="0" />
  <path
     style="display:inline;opacity:1;fill:#3798fb;fill-opacity:1;stroke:none;stroke-width:0.31749991;stroke-linecap:round;stroke-linejoin:round;stroke-miterlimit:4;stroke-dasharray:none;stroke-opacity:1;paint-order:normal"
     d="M 4.6239706,0.52921261 V 2.329137 h 3.030608 C 7.8115281,2.329137 7.9375,2.2026826 7.9375,2.0457314 V 0.81261828 C 7.9375,0.65566711 7.8115281,0.52921261 7.6545786,0.52921261 Z M 6.1230177,1.1023326 A 0.32708828,0.32708828 0 0 1 6.4501,1.4294132 0.32708828,0.32708828 0 0 1 6.1230177,1.7565031 0.32708828,0.32708828 0 0 1 5.7959351,1.4294132 0.32708828,0.32708828 0 0 1 6.1230177,1.1023326 Z m 0.9137925,0 A 0.32708828,0.32708828 0 0 1 7.3638925,1.4294132 0.32708828,0.32708828 0 0 1 7.0368102,1.7565031 0.32708828,0.32708828 0 0 1 6.7097278,1.4294132 0.32708828,0.32708828 0 0 1 7.0368102,1.1023326 Z M 4.6239706,2.6979578 v 1.799915 h 3.030608 C 7.8115281,4.4978728 7.9375,4.3714184 7.9375,4.2144672 V 2.9813635 c 0,-0.1569512 -0.1259719,-0.2834057 -0.2829214,-0.2834057 z m 1.4990471,0.572634 A 0.32708828,0.32708828 0 0 1 6.4501,3.5976723 0.32708828,0.32708828 0 0 1 6.1230177,3.9247529 0.32708828,0.32708828 0 0 1 5.7959351,3.5976723 0.32708828,0.32708828 0 0 1 6.1230177,3.2705918 Z m 0.9137925,0 A 0.32708828,0.32708828 0 0 1 7.3638925,3.5976723 0.32708828,0.32708828 0 0 1 7.0368102,3.9247529 0.32708828,0.32708828 0 0 1 6.7097278,3.5976723 0.32708828,0.32708828 0 0 1 7.0368102,3.2705918 Z"
     id="path854"
     inkscape:connector-curvature="0" />
  <rect
     style="display:inline;opacity:1;fill:#3798fb;fill-opacity:1;stroke:none;stroke-width:0.31750005;stroke-linecap:round;stroke-linejoin:round;stroke-miterlimit:4;stroke-dasharray:none;stroke-opacity:1;paint-order:normal"
     id="rect827"
     width="0.39687499"
     height="5.0270834"
     x="3.7703125"
     y="-3.1789146e-08"
     ry="0.1984375" />
</svg>
