<?xml version="1.0" encoding="UTF-8" standalone="no"?>
<!-- Created with Inkscape (http://www.inkscape.org/) -->

<svg
   xmlns:dc="http://purl.org/dc/elements/1.1/"
   xmlns:cc="http://creativecommons.org/ns#"
   xmlns:rdf="http://www.w3.org/1999/02/22-rdf-syntax-ns#"
   xmlns:svg="http://www.w3.org/2000/svg"
   xmlns="http://www.w3.org/2000/svg"
   xmlns:sodipodi="http://sodipodi.sourceforge.net/DTD/sodipodi-0.dtd"
   xmlns:inkscape="http://www.inkscape.org/namespaces/inkscape"
   width="30"
   height="15"
   viewBox="0 0 7.9375 3.9687502"
   version="1.1"
   id="svg8"
   inkscape:version="0.92.5 (2060ec1f9f, 2020-04-08)"
   sodipodi:docname="mirror.svg">
  <defs
     id="defs2">
    <clipPath
       id="clipPath828"
       clipPathUnits="userSpaceOnUse">
      <rect
         y="286.44974"
         x="21.332031"
         height="6.7799478"
         width="6.6807284"
         id="rect830"
         style="opacity:0.47600002;fill:#008000;fill-opacity:1;stroke:none;stroke-width:9.10899925;stroke-linecap:square;stroke-linejoin:miter;stroke-miterlimit:4;stroke-dasharray:none;stroke-opacity:1" />
    </clipPath>
    <clipPath
       id="clipPath828-7"
       clipPathUnits="userSpaceOnUse">
      <rect
         y="286.44974"
         x="21.332031"
         height="6.7799478"
         width="6.6807284"
         id="rect830-5"
         style="opacity:0.47600002;fill:#008000;fill-opacity:1;stroke:none;stroke-width:9.10899925;stroke-linecap:square;stroke-linejoin:miter;stroke-miterlimit:4;stroke-dasharray:none;stroke-opacity:1" />
    </clipPath>
    <clipPath
       id="clipPath828-75"
       clipPathUnits="userSpaceOnUse">
      <rect
         y="286.44974"
         x="21.332031"
         height="6.7799478"
         width="6.6807284"
         id="rect830-3"
         style="opacity:0.47600002;fill:#008000;fill-opacity:1;stroke:none;stroke-width:9.10899925;stroke-linecap:square;stroke-linejoin:miter;stroke-miterlimit:4;stroke-dasharray:none;stroke-opacity:1" />
    </clipPath>
    <clipPath
       id="clipPath828-7-5"
       clipPathUnits="userSpaceOnUse">
      <rect
         y="286.44974"
         x="21.332031"
         height="6.7799478"
         width="6.6807284"
         id="rect830-5-6"
         style="opacity:0.47600002;fill:#008000;fill-opacity:1;stroke:none;stroke-width:9.10899925;stroke-linecap:square;stroke-linejoin:miter;stroke-miterlimit:4;stroke-dasharray:none;stroke-opacity:1" />
    </clipPath>
  </defs>
  <sodipodi:namedview
     id="base"
     pagecolor="#ffffff"
     bordercolor="#666666"
     borderopacity="1.0"
     inkscape:pageopacity="0"
     inkscape:pageshadow="2"
     inkscape:zoom="32"
     inkscape:cx="14.515869"
     inkscape:cy="6.7573505"
     inkscape:document-units="mm"
     inkscape:current-layer="svg8"
     showgrid="false"
     showborder="true"
     inkscape:showpageshadow="false"
     units="px"
     fit-margin-top="0"
     fit-margin-left="0"
     fit-margin-right="0"
     fit-margin-bottom="0"
     inkscape:snap-nodes="false"
     inkscape:snap-global="true"
     inkscape:snap-bbox="false"
     inkscape:snap-bbox-midpoints="false"
     inkscape:bbox-nodes="false"
     inkscape:snap-page="false"
     inkscape:object-nodes="true"
     inkscape:bbox-paths="false"
     inkscape:window-width="1920"
     inkscape:window-height="1054"
     inkscape:window-x="0"
     inkscape:window-y="26"
     inkscape:window-maximized="1"
     inkscape:object-paths="true"
     inkscape:snap-intersection-paths="true"
     inkscape:snap-smooth-nodes="true"
     inkscape:snap-midpoints="true" />
  <metadata
     id="metadata5">
    <rdf:RDF>
      <cc:Work
         rdf:about="">
        <dc:format>image/svg+xml</dc:format>
        <dc:type
           rdf:resource="http://purl.org/dc/dcmitype/StillImage" />
        <dc:title></dc:title>
      </cc:Work>
    </rdf:RDF>
  </metadata>
  <path
     style="fill:#001c38;fill-opacity:1;stroke-width:3.18309784;stroke-linecap:butt;stroke-linejoin:round;stroke-miterlimit:4;stroke-dasharray:none"
     d="M 0 0 L 0 15 L 30 15 L 30 0 L 0 0 z M 3.8417969 1.9023438 A 1.5 1.5 0 0 1 5.3417969 3.4023438 A 1.5 1.5 0 0 1 3.8417969 4.9023438 A 1.5 1.5 0 0 1 2.3417969 3.4023438 A 1.5 1.5 0 0 1 3.8417969 1.9023438 z M 7.2949219 1.9023438 A 1.5 1.5 0 0 1 8.7949219 3.4023438 A 1.5 1.5 0 0 1 7.2949219 4.9023438 A 1.5 1.5 0 0 1 5.7949219 3.4023438 A 1.5 1.5 0 0 1 7.2949219 1.9023438 z M 22.705078 1.9023438 A 1.5 1.5 0 0 1 24.205078 3.4023438 A 1.5 1.5 0 0 1 22.705078 4.9023438 A 1.5 1.5 0 0 1 21.205078 3.4023438 A 1.5 1.5 0 0 1 22.705078 1.9023438 z M 26.158203 1.9023438 A 1.5 1.5 0 0 1 27.658203 3.4023438 A 1.5 1.5 0 0 1 26.158203 4.9023438 A 1.5 1.5 0 0 1 24.658203 3.4023438 A 1.5 1.5 0 0 1 26.158203 1.9023438 z M 3.8417969 10.097656 A 1.5 1.5 0 0 1 5.3417969 11.597656 A 1.5 1.5 0 0 1 3.8417969 13.097656 A 1.5 1.5 0 0 1 2.3417969 11.597656 A 1.5 1.5 0 0 1 3.8417969 10.097656 z M 7.2949219 10.097656 A 1.5 1.5 0 0 1 8.7949219 11.597656 A 1.5 1.5 0 0 1 7.2949219 13.097656 A 1.5 1.5 0 0 1 5.7949219 11.597656 A 1.5 1.5 0 0 1 7.2949219 10.097656 z M 22.705078 10.097656 A 1.5 1.5 0 0 1 24.205078 11.597656 A 1.5 1.5 0 0 1 22.705078 13.097656 A 1.5 1.5 0 0 1 21.205078 11.597656 A 1.5 1.5 0 0 1 22.705078 10.097656 z M 26.158203 10.097656 A 1.5 1.5 0 0 1 27.658203 11.597656 A 1.5 1.5 0 0 1 26.158203 13.097656 A 1.5 1.5 0 0 1 24.658203 11.597656 A 1.5 1.5 0 0 1 26.158203 10.097656 z "
     transform="scale(0.26458333)"
     id="rect1024" />
  <path
     style="display:inline;opacity:1;fill:#d2008e;fill-opacity:1;stroke:none;stroke-width:1.19999969;stroke-linecap:round;stroke-linejoin:round;stroke-miterlimit:4;stroke-dasharray:none;stroke-opacity:1;paint-order:normal"
     d="M 1.0683594 0 C 0.4751619 0 -2.9605947e-16 0.47906446 0 1.0722656 L 0 5.7324219 C 0 6.3256233 0.4751619 6.8027344 1.0683594 6.8027344 L 12.523438 6.8027344 L 12.523438 0 L 1.0683594 0 z M 3.8417969 1.9023438 A 1.5 1.5 0 0 1 5.3417969 3.4023438 A 1.5 1.5 0 0 1 3.8417969 4.9023438 A 1.5 1.5 0 0 1 2.3417969 3.4023438 A 1.5 1.5 0 0 1 3.8417969 1.9023438 z M 7.2949219 1.9023438 A 1.5 1.5 0 0 1 8.7949219 3.4023438 A 1.5 1.5 0 0 1 7.2949219 4.9023438 A 1.5 1.5 0 0 1 5.7949219 3.4023438 A 1.5 1.5 0 0 1 7.2949219 1.9023438 z M 1.0683594 8.1972656 C 0.4751619 8.1972656 -2.9605947e-16 8.6743771 0 9.2675781 L 0 13.927734 C 0 14.520936 0.4751619 15 1.0683594 15 L 12.523438 15 L 12.523438 8.1972656 L 1.0683594 8.1972656 z M 3.8417969 10.097656 A 1.5 1.5 0 0 1 5.3417969 11.597656 A 1.5 1.5 0 0 1 3.8417969 13.097656 A 1.5 1.5 0 0 1 2.3417969 11.597656 A 1.5 1.5 0 0 1 3.8417969 10.097656 z M 7.2949219 10.097656 A 1.5 1.5 0 0 1 8.7949219 11.597656 A 1.5 1.5 0 0 1 7.2949219 13.097656 A 1.5 1.5 0 0 1 5.7949219 11.597656 A 1.5 1.5 0 0 1 7.2949219 10.097656 z "
     transform="scale(0.26458333)"
     id="path1044" />
  <rect
     style="display:inline;opacity:1;fill:#3798fb;fill-opacity:1;stroke:none;stroke-width:0.28210619;stroke-linecap:round;stroke-linejoin:round;stroke-miterlimit:4;stroke-dasharray:none;stroke-opacity:1;paint-order:normal"
     id="rect827"
     width="0.39687499"
     height="3.96875"
     x="3.7703125"
     y="-4.4408921e-16"
     ry="0.1984375" />
  <path
     style="display:inline;opacity:1;fill:#3798fb;fill-opacity:1;stroke:none;stroke-width:1.19999969;stroke-linecap:round;stroke-linejoin:round;stroke-miterlimit:4;stroke-dasharray:none;stroke-opacity:1;paint-order:normal"
     d="M 17.476562 0 L 17.476562 6.8027344 L 28.931641 6.8027344 C 29.524838 6.8027344 30 6.3256233 30 5.7324219 L 30 1.0722656 C 30 0.4790645 29.524838 0 28.931641 0 L 17.476562 0 z M 22.705078 1.9023438 A 1.5 1.5 0 0 1 24.205078 3.4023438 A 1.5 1.5 0 0 1 22.705078 4.9023438 A 1.5 1.5 0 0 1 21.205078 3.4023438 A 1.5 1.5 0 0 1 22.705078 1.9023438 z M 26.158203 1.9023438 A 1.5 1.5 0 0 1 27.658203 3.4023438 A 1.5 1.5 0 0 1 26.158203 4.9023438 A 1.5 1.5 0 0 1 26.052734 4.8984375 A 1.5 1.5 0 0 1 24.658203 3.4023438 A 1.5 1.5 0 0 1 24.662109 3.296875 A 1.5 1.5 0 0 1 26.158203 1.9023438 z M 17.476562 8.1972656 L 17.476562 15 L 28.931641 15 C 29.524838 15 30 14.520937 30 13.927734 L 30 9.2675781 C 30 8.6743771 29.524838 8.1972656 28.931641 8.1972656 L 17.476562 8.1972656 z M 22.705078 10.097656 A 1.5 1.5 0 0 1 24.205078 11.597656 A 1.5 1.5 0 0 1 22.705078 13.097656 A 1.5 1.5 0 0 1 21.205078 11.597656 A 1.5 1.5 0 0 1 22.705078 10.097656 z M 26.158203 10.097656 A 1.5 1.5 0 0 1 27.658203 11.597656 A 1.5 1.5 0 0 1 26.158203 13.097656 A 1.5 1.5 0 0 1 26.052734 13.09375 A 1.5 1.5 0 0 1 24.658203 11.597656 A 1.5 1.5 0 0 1 24.662109 11.492188 A 1.5 1.5 0 0 1 26.158203 10.097656 z "
     transform="scale(0.26458333)"
     id="path1052" />
</svg>
