<?xml version="1.0" encoding="UTF-8" standalone="no"?>
<svg
   xmlns:dc="http://purl.org/dc/elements/1.1/"
   xmlns:cc="http://creativecommons.org/ns#"
   xmlns:rdf="http://www.w3.org/1999/02/22-rdf-syntax-ns#"
   xmlns:svg="http://www.w3.org/2000/svg"
   xmlns="http://www.w3.org/2000/svg"
   xmlns:sodipodi="http://sodipodi.sourceforge.net/DTD/sodipodi-0.dtd"
   xmlns:inkscape="http://www.inkscape.org/namespaces/inkscape"
   width="9.6882296mm"
   height="8.4046192mm"
   viewBox="0 0 9.6882299 8.404619"
   version="1.1"
   id="svg8"
   inkscape:version="1.0.2 (e86c870, 2021-01-15)"
   sodipodi:docname="news-img.svg">
  <defs
     id="defs2" />
  <sodipodi:namedview
     id="base"
     pagecolor="#ffffff"
     bordercolor="#666666"
     borderopacity="1.0"
     inkscape:pageopacity="0.0"
     inkscape:pageshadow="2"
     inkscape:zoom="3.9999998"
     inkscape:cx="29.111205"
     inkscape:cy="18.746126"
     inkscape:document-units="mm"
     inkscape:current-layer="svg8"
     inkscape:document-rotation="0"
     showgrid="false"
     inkscape:window-width="958"
     inkscape:window-height="1023"
     inkscape:window-x="960"
     inkscape:window-y="26"
     inkscape:window-maximized="0"
     inkscape:object-paths="true"
     inkscape:snap-intersection-paths="true"
     inkscape:snap-smooth-nodes="true"
     inkscape:snap-midpoints="true"
     inkscape:snap-nodes="false"
     inkscape:object-nodes="true" />
  <metadata
     id="metadata5">
    <rdf:RDF>
      <cc:Work
         rdf:about="">
        <dc:format>image/svg+xml</dc:format>
        <dc:type
           rdf:resource="http://purl.org/dc/dcmitype/StillImage" />
        <dc:title />
      </cc:Work>
    </rdf:RDF>
  </metadata>
  <path
     id="path26"
     style="display:inline;fill:#61a4eb;fill-opacity:1;stroke-width:0.0105413"
     d="M 5.9792972,0.5201136 C 5.9661442,0.5236316 5.8928892,0.5763325 5.8165066,0.63723063 5.6282708,0.78730395 5.5443658,0.84511243 5.3212501,0.97842477 5.2358781,1.0294336 4.9224191,1.1957834 4.8135806,1.2478333 c -0.035744,0.017097 -0.088849,0.042765 -0.1180127,0.057057 -0.02916,0.014296 -0.093469,0.042936 -0.1429045,0.063649 -0.049437,0.020714 -0.13028,0.0548 -0.1796585,0.075737 C 4.1838903,1.5244623 4.1082311,1.5549481 3.8857441,1.6406035 3.4479271,1.8091589 3.2783014,1.8601732 2.1032252,2.1768072 1.0501985,2.4605565 0.94533341,2.4907895 0.85965393,2.535458 0.31666222,2.8185238 0.03499903,3.2302554 0.00294013,3.7877314 c -0.0206729,0.3594418 0.0687183,0.7965961 0.23514576,1.1500289 0.054204,0.115111 0.13782588,0.2569688 0.15913178,0.2699402 0.007962,0.00484 0.0167836,0.017519 0.0196335,0.028168 0.009082,0.033905 0.19229562,0.2327099 0.26980737,0.292772 0.21342059,0.1653733 0.49005856,0.2765625 0.73023776,0.2935365 0.046818,0.0033 0.097429,0.00723 0.1124876,0.0087 0.076852,0.00755 0.28241,-0.00666 0.4147147,-0.02867 0.1720166,-0.028612 0.1427797,-0.045524 0.2652764,0.1536289 0.040647,0.06609 0.08248,0.1328609 0.092951,0.1483858 0.024219,0.03591 0.1598318,0.2517174 0.2652612,0.4221352 0.1383344,0.2236023 0.158137,0.255249 0.2001672,0.3196073 0.050949,0.078015 0.1764897,0.2775744 0.3013814,0.479108 0.052603,0.08488 0.1219288,0.1952741 0.1540452,0.2453198 0.032118,0.050047 0.1108857,0.1759057 0.1750473,0.2796841 0.064163,0.103779 0.1245416,0.1985718 0.1341855,0.210651 0.00966,0.012086 0.032013,0.048074 0.049706,0.079991 0.017686,0.031915 0.035568,0.061619 0.039713,0.066007 A 0.56622947,0.56622947 0 0 0 4.198437,8.3853246 0.56622947,0.56622947 0 0 0 4.5988327,7.6918543 0.56622947,0.56622947 0 0 0 4.5727884,7.6164318 l -0.00105,6.35e-4 C 4.5536607,7.5761531 4.2607211,7.1012594 4.1754086,6.975321 4.1648893,6.9598091 4.1230366,6.8930452 4.0823869,6.8269556 4.0417371,6.7608658 3.9999304,6.6940871 3.9894608,6.6785641 3.9789966,6.6630337 3.933406,6.5912773 3.8881505,6.5190897 3.8428969,6.446904 3.7574045,6.3108502 3.6981802,6.2167456 3.6389567,6.1226423 3.5715737,6.0147281 3.5484255,5.9769413 3.5252776,5.9391563 3.4810242,5.8700323 3.4500925,5.8233325 3.4191608,5.7766347 3.384502,5.7199369 3.3730873,5.697336 c -0.011404,-0.022603 -0.02574,-0.045755 -0.031855,-0.051449 -0.01787,-0.016654 -0.070518,-0.111566 -0.07984,-0.143957 l -0.00858,-0.029754 0.4405637,-0.109427 C 3.9356936,5.3025626 4.2166996,5.2375487 4.3178322,5.2182362 4.6053616,5.1633312 4.7721228,5.1335654 4.8903119,5.1160784 c 0.05994,-0.00885 0.160893,-0.023877 0.2243406,-0.033349 0.4974157,-0.074232 1.1370954,-0.1147569 1.4942581,-0.09468 0.1898459,0.01066 0.2378288,0.016286 0.4526413,0.05302 0.068305,0.011672 0.1318054,0.0192 0.1411107,0.016709 C 7.2167011,5.0540198 7.1914727,4.9484207 7.0546064,4.4376107 6.8997471,3.8596526 6.8909797,3.8216129 6.9113644,3.8159495 c 0.011961,-0.0033 0.044558,-0.02151 0.072473,-0.040456 C 7.2419978,3.6002284 7.3964492,3.2900988 7.4036978,2.9324382 7.4083497,2.7028774 7.3537785,2.482918 7.2421175,2.2812168 7.0605188,1.9531843 6.7471871,1.7406095 6.4296327,1.7299954 L 6.3282033,1.7266076 6.1657042,1.1201527 C 6.0076085,0.53014053 6.0025631,0.51386903 5.9792997,0.52010236 Z M 8.0215337,0 7.9725297,0.0695482 c -0.026951,0.0382539 -0.071349,0.1055545 -0.098649,0.14952789 l -0.049629,0.0799492 0.045024,0.0279252 c 0.3137684,0.19459019 0.6496064,0.4940983 0.9045273,0.80669851 0.089473,0.1097166 0.2343751,0.3533542 0.3234678,0.5438495 0.064789,0.1385443 0.1969319,0.6175067 0.2140178,0.7757828 0.013264,0.1228629 0.022811,0.3328566 0.017079,0.375332 -0.00211,0.015216 -0.0069,0.085496 -0.010792,0.1561878 -0.013781,0.2504522 -0.1074408,0.6402939 -0.2182573,0.9084818 -0.028159,0.068147 -0.050274,0.1273821 -0.049131,0.1316507 0.00114,0.00426 -0.00412,0.016083 -0.011708,0.026256 -0.00759,0.01019 -0.041225,0.076091 -0.074756,0.1464846 -0.058015,0.1217855 -0.059632,0.1286771 -0.033089,0.1423486 0.015347,0.0079 0.084961,0.042491 0.1547011,0.076852 0.069737,0.034365 0.129169,0.061849 0.1320651,0.061073 0.00818,-0.0022 0.1533838,-0.3052556 0.1941222,-0.4052613 0.044268,-0.1086754 0.1445943,-0.3983018 0.1417058,-0.4090772 -0.00119,-0.00426 0.00954,-0.04425 0.023701,-0.088884 C 9.642446,3.3682381 9.6948632,2.9407079 9.6875457,2.6723862 9.673641,2.1624964 9.512374,1.6167902 9.2550168,1.20867 8.9703851,0.75729931 8.6383302,0.41952959 8.1581552,0.09294452 Z M 5.7431389,1.1491907 c 0.00185,-3.474e-4 0.00328,-4.235e-4 0.00424,-1.164e-4 0.00884,0.00265 0.1843922,0.6402371 0.4786571,1.7384479 l 0.4646899,1.7342472 -0.029005,0.00777 c -0.015955,0.00426 -0.032465,0.00581 -0.036668,0.00337 -0.019349,-0.01119 -0.3810464,-0.01125 -0.5978877,-1.475e-4 -0.054243,0.00278 -0.134309,0.00617 -0.1779303,0.00758 -0.043621,0.00137 -0.1405837,0.0089 -0.2154708,0.016709 -0.074888,0.00782 -0.1653329,0.017262 -0.2009895,0.020998 -0.035656,0.00376 -0.1425459,0.017815 -0.2375453,0.03129 -0.094996,0.013468 -0.1769816,0.02321 -0.1822026,0.021641 -0.017869,-0.00538 -0.703934,0.1160096 -0.8819998,0.1560386 -0.097806,0.02199 -0.2119687,0.046914 -0.2536849,0.055394 -0.041716,0.00849 -0.1193148,0.026697 -0.172457,0.040426 L 3.6082751,5.0078395 3.2533644,3.6832948 2.8984515,2.3587413 2.9264093,2.3511529 C 2.9952666,2.3324465 3.6560881,2.1147578 3.7930097,2.0656499 3.9359424,2.0143886 3.9862978,1.9949194 4.2490183,1.8894918 4.4480567,1.8096183 4.6830638,1.7066794 4.9498949,1.5824766 5.0617912,1.5303913 5.2787453,1.4163718 5.3880711,1.3522051 c 0.060183,-0.035323 0.1304586,-0.075283 0.1561601,-0.088812 0.025702,-0.013522 0.078783,-0.04573 0.1179597,-0.071545 0.034279,-0.022588 0.067935,-0.040134 0.080954,-0.042623 z m 1.4398942,-0.33653332 -0.091574,0.15028702 -0.091567,0.150311 0.1431888,0.085874 c 0.147625,0.088523 0.3532979,0.2436922 0.4454899,0.3360927 0.028859,0.028924 0.061954,0.059049 0.073523,0.066944 0.043294,0.029551 0.2077776,0.2519346 0.2880129,0.3893797 0.1052039,0.1802166 0.200862,0.5195775 0.2113588,0.7498355 0.01658,0.3636886 -0.084695,0.7493779 -0.3012318,1.1471199 l -0.076474,0.1404622 0.1512857,0.082766 c 0.083212,0.045521 0.1538481,0.082079 0.1569706,0.081243 0.010768,-0.00288 0.1660384,-0.2972393 0.2041124,-0.3869281 0.064659,-0.1523117 0.1095571,-0.273448 0.1348009,-0.3637219 0.028643,-0.1024336 0.072892,-0.3122306 0.068986,-0.3271848 -0.00152,-0.00578 0.00114,-0.027914 0.00588,-0.049193 0.00473,-0.02128 0.011009,-0.097943 0.013946,-0.1703623 C 8.5425479,2.3335107 8.3571987,1.8414868 7.957483,1.403047 7.8679966,1.3048922 7.6744143,1.1273817 7.6142627,1.0883412 7.5982163,1.0779331 7.5427668,1.0388045 7.4910406,1.0013879 7.4393131,0.96397139 7.3488541,0.90620507 7.2900149,0.87300551 Z" />
</svg>
