<?xml version="1.0" encoding="UTF-8" standalone="no"?>
<svg
   xmlns:dc="http://purl.org/dc/elements/1.1/"
   xmlns:cc="http://creativecommons.org/ns#"
   xmlns:rdf="http://www.w3.org/1999/02/22-rdf-syntax-ns#"
   xmlns:svg="http://www.w3.org/2000/svg"
   xmlns="http://www.w3.org/2000/svg"
   xmlns:sodipodi="http://sodipodi.sourceforge.net/DTD/sodipodi-0.dtd"
   xmlns:inkscape="http://www.inkscape.org/namespaces/inkscape"
   width="5.3714447mm"
   height="7.9375057mm"
   viewBox="0 0 5.3714446 7.9375056"
   version="1.1"
   id="svg8"
   inkscape:version="1.0.2 (e86c870, 2021-01-15)"
   sodipodi:docname="note-img.svg">
  <defs
     id="defs2" />
  <sodipodi:namedview
     id="base"
     pagecolor="#ffffff"
     bordercolor="#666666"
     borderopacity="1.0"
     inkscape:pageopacity="0.0"
     inkscape:pageshadow="2"
     inkscape:zoom="22.627416"
     inkscape:cx="9.5605587"
     inkscape:cy="16.606216"
     inkscape:document-units="mm"
     inkscape:current-layer="svg8"
     inkscape:document-rotation="0"
     showgrid="false"
     inkscape:window-width="1920"
     inkscape:window-height="1052"
     inkscape:window-x="0"
     inkscape:window-y="26"
     inkscape:window-maximized="1"
     inkscape:object-paths="true"
     inkscape:snap-intersection-paths="true"
     inkscape:snap-smooth-nodes="true"
     inkscape:snap-midpoints="true"
     inkscape:snap-nodes="false"
     inkscape:object-nodes="true" />
  <metadata
     id="metadata5">
    <rdf:RDF>
      <cc:Work
         rdf:about="">
        <dc:format>image/svg+xml</dc:format>
        <dc:type
           rdf:resource="http://purl.org/dc/dcmitype/StillImage" />
        <dc:title />
      </cc:Work>
    </rdf:RDF>
  </metadata>
  <path
     id="path844"
     style="color:#000000;font-style:normal;font-variant:normal;font-weight:normal;font-stretch:normal;font-size:medium;line-height:normal;font-family:sans-serif;font-variant-ligatures:normal;font-variant-position:normal;font-variant-caps:normal;font-variant-numeric:normal;font-variant-alternates:normal;font-variant-east-asian:normal;font-feature-settings:normal;font-variation-settings:normal;text-indent:0;text-align:start;text-decoration:none;text-decoration-line:none;text-decoration-style:solid;text-decoration-color:#000000;letter-spacing:normal;word-spacing:normal;text-transform:none;writing-mode:lr-tb;direction:ltr;text-orientation:mixed;dominant-baseline:auto;baseline-shift:baseline;text-anchor:start;white-space:normal;shape-padding:0;shape-margin:0;inline-size:0;clip-rule:nonzero;display:inline;overflow:visible;visibility:visible;opacity:1;isolation:auto;mix-blend-mode:normal;color-interpolation:sRGB;color-interpolation-filters:linearRGB;solid-color:#000000;solid-opacity:1;vector-effect:none;fill:#5a4c01;fill-opacity:1;fill-rule:nonzero;stroke:none;stroke-width:1.07712;stroke-linecap:round;stroke-linejoin:round;stroke-miterlimit:4;stroke-dasharray:none;stroke-dashoffset:5.66929;stroke-opacity:1;color-rendering:auto;image-rendering:auto;shape-rendering:auto;text-rendering:auto;enable-background:accumulate;stop-color:#000000;stop-opacity:1"
     d="M 2.6823828,5.6188367e-6 C 1.2027722,0.00129282 1.4860781e-4,1.2064144 0,2.6862853 c -3.0192189e-5,0.3990483 0.08751801,0.7923711 0.25883091,1.1527735 0.082347,0.17325 0.1832427,0.33858 0.3005786,0.490388 l 0.00226,0.00223 c 0.00118,0.00158 0.00323,0.00232 0.00442,0.0039 l 0.00162,0.00445 c 0.015662,0.020542 0.025356,0.032811 0.021155,0.027274 a 0.24226826,0.24226826 0 0 0 0.00442,0.00445 c 0.00657,0.00824 0.014477,0.016883 0.021155,0.025048 0.00129,0.00171 0.00259,0.00274 0.00388,0.00445 l 0.00226,0.0039 C 0.90882271,4.779621 1.1811491,5.040887 1.3631181,5.4571729 a 0.24226826,0.24226826 0 0 0 0.0067,0.013915 v 1.5156942 c 7.1e-5,0.1345687 0.111168,0.2432938 0.247699,0.2421324 h 0.2393477 v 0.1308126 c 0,0.3203122 0.257467,0.5777784 0.577779,0.5777784 h 0.502634 c 0.320312,0 0.577778,-0.2574662 0.577778,-0.5777784 V 7.2289143 h 0.23935 c 0.13653,0.00116 0.247627,-0.1075641 0.247698,-0.2421324 V 5.4699745 a 0.24226826,0.24226826 0 0 0 0.0061,-0.012803 c 0.181969,-0.4162859 0.454297,-0.6775518 0.74254,-1.0520241 l 0.0023,-0.0039 c 0.0013,-0.00171 0.0026,-0.00274 0.0039,-0.00445 0.0067,-0.00816 0.01456,-0.016805 0.02116,-0.025048 a 0.24226826,0.24226826 0 0 0 0.0044,-0.00445 c -0.0042,0.00554 0.0055,-0.00673 0.02116,-0.027274 l 0.0016,-0.00445 c 0.0012,-0.00158 0.0032,-0.00232 0.0044,-0.0039 l 0.0023,-0.00223 C 4.9293028,4.1776442 5.0302618,4.0123088 5.1126138,3.8390588 5.2839318,3.4786564 5.3714748,3.0853336 5.3714448,2.6862853 5.3712968,1.2064143 4.1686728,0.00129308 2.6890618,5.6188367e-6 a 0.24226826,0.24226826 0 0 0 -0.0033,0 0.24226826,0.24226826 0 0 0 -0.0033,0 z M 2.6846828,0.48594057 h 0.0011 0.0011 c 1.218769,1.2272e-4 2.20078,0.98157633 2.200901,2.20034473 2.5e-5,0.3270898 -0.07221,0.6514088 -0.212631,0.9468218 -0.06784,0.142719 -0.151517,0.2769335 -0.248255,0.4018843 a 0.24226826,0.24226826 0 0 0 -0.0023,0.00223 c -0.0023,0.00296 -0.0039,0.00541 -0.0061,0.00835 a 0.24226826,0.24226826 0 0 0 -0.0023,0.0039 c 0.0058,-0.00787 -0.0015,-2.417e-4 -0.02116,0.025605 -0.0056,0.00695 -0.01102,0.013721 -0.0167,0.020595 a 0.24226826,0.24226826 0 0 0 -0.0061,0.00668 c -0.230042,0.2999928 -0.491816,0.6079614 -0.706993,1.0141682 h -0.289447 l 0.631215,-2.3550869 c 0.0245,-0.091466 -0.02675,-0.184065 -0.114666,-0.2076219 -0.02198,-0.00589 -0.04389,-0.00714 -0.06512,-0.0039 -0.06369,0.00973 -0.119106,0.057755 -0.137487,0.1263544 l -0.0072,0.026162 -0.37294,0.2048385 L 3.0173708,2.3161282 2.5336628,2.9072657 2.1712988,2.38348 1.8517958,2.7180125 1.6842501,2.6862845 l -0.0028,-0.010017 c -0.01838,-0.0686 -0.0738,-0.1166287 -0.137487,-0.1263544 -0.02123,-0.00324 -0.04315,-0.00199 -0.06512,0.0039 -0.08792,0.023557 -0.139173,0.1161557 -0.114665,0.2076218 L 1.9949528,5.1165176 H 1.7060601 C 1.4908821,4.71031 1.2291061,4.4023414 0.99914471,4.1023431 a 0.24226826,0.24226826 0 0 0 -0.00614,-0.00668 c -0.00571,-0.00687 -0.011095,-0.013647 -0.016696,-0.020595 -0.019647,-0.025846 -0.026972,-0.033479 -0.021155,-0.025605 a 0.24226826,0.24226826 0 0 0 -0.00226,-0.0039 c -0.00226,-0.00294 -0.00388,-0.00539 -0.00614,-0.00835 a 0.24226826,0.24226826 0 0 0 -0.00226,-0.00223 C 0.84785631,3.9100406 0.76417671,3.7758261 0.69633961,3.6331071 0.55591961,3.3376941 0.48368351,3.0133751 0.48370821,2.6862853 0.48383001,1.4675169 1.4658411,0.48606329 2.6846088,0.48594057 Z m 0.284401,2.24877123 0.242132,0.4881615 0.390196,-0.2159712 -0.565534,2.1096147 h -0.06679 -0.283324 -0.283322 -0.06679 l -0.5861717,-2.1869857 0.1803457,0.034511 0.212632,-0.2232073 0.374053,0.5449377 z m -1.10546,2.8933448 h 1.645387 v 0.4391781 h -1.645387 z m 0,0.6751878 h 1.645387 v 0.4414047 h -1.645387 z" />
</svg>
