<?xml version="1.0" encoding="UTF-8" standalone="no"?>
<svg
   xmlns:dc="http://purl.org/dc/elements/1.1/"
   xmlns:cc="http://creativecommons.org/ns#"
   xmlns:rdf="http://www.w3.org/1999/02/22-rdf-syntax-ns#"
   xmlns:svg="http://www.w3.org/2000/svg"
   xmlns="http://www.w3.org/2000/svg"
   xmlns:sodipodi="http://sodipodi.sourceforge.net/DTD/sodipodi-0.dtd"
   xmlns:inkscape="http://www.inkscape.org/namespaces/inkscape"
   class="{{ .class }}"
   aria-label="Email"
   role="img"
   width="19"
   height="19"
   viewBox="0 0 512 512"
   version="1.1"
   id="svg4"
   sodipodi:docname="owner.svg"
   inkscape:version="0.92.3 (2405546, 2018-03-11)">
  <metadata
     id="metadata10">
    <rdf:RDF>
      <cc:Work
         rdf:about="">
        <dc:format>image/svg+xml</dc:format>
        <dc:type
           rdf:resource="http://purl.org/dc/dcmitype/StillImage" />
      </cc:Work>
    </rdf:RDF>
  </metadata>
  <defs
     id="defs8">
    <clipPath
       id="clipPath828"
       clipPathUnits="userSpaceOnUse">
      <rect
         y="286.44974"
         x="21.332031"
         height="6.7799478"
         width="6.6807284"
         id="rect830"
         style="opacity:0.47600002;fill:#008000;fill-opacity:1;stroke:none;stroke-width:9.10899925;stroke-linecap:square;stroke-linejoin:miter;stroke-miterlimit:4;stroke-dasharray:none;stroke-opacity:1" />
    </clipPath>
  </defs>
  <sodipodi:namedview
     pagecolor="#ffffff"
     bordercolor="#666666"
     borderopacity="1"
     objecttolerance="10"
     gridtolerance="10"
     guidetolerance="10"
     inkscape:pageopacity="0"
     inkscape:pageshadow="2"
     inkscape:window-width="640"
     inkscape:window-height="480"
     id="namedview6"
     showgrid="false"
     inkscape:zoom="14.315789"
     inkscape:cx="1.6764706"
     inkscape:cy="8.4522059"
     inkscape:current-layer="svg4" />
  <path
     d="M 255.99526,3.1250108e-8 C 158.01209,3.1250108e-8 211.47592,39.17175 169.99526,78.68421 166.49555,81.67757 162.66329,84.46802 158.41631,87 154.0951,89.40819 149.70297,91.36429 145.36368,92.89473 90.38694,109.10393 83.258674,43.1298 34.258423,128 c -49.013486,84.89363 11.750756,58.12243 25.157893,113.89473 0.787696,4.5126 1.342283,9.18039 1.421053,14.10527 -0.06414,4.92894 -0.588298,9.5912 -1.421053,14.10527 -13.407137,55.77224 -74.171379,29.00108 -25.157893,113.89472 49.000251,84.87023 56.128517,18.94527 111.105257,35.15792 4.34373,1.53034 8.73586,3.48653 13.05263,5.89473 0.22502,0.11318 0.51176,0.36056 0.73685,0.47374 3.09466,1.89062 6.04734,3.85069 8.73685,5.99999 0.67524,0.5632 1.4188,1.20428 2.10526,1.78957 C 211.5603,472.81491 157.98051,512 255.99526,512 c 98.01477,0 44.43495,-39.18412 85.99999,-78.68422 0.6753,-0.5632 1.34387,-1.21532 2.05258,-1.78957 2.91461,-2.3296 6.13905,-4.50075 9.52633,-6.52633 4.32123,-2.41934 8.61039,-4.36434 12.94735,-5.89474 54.97705,-16.20811 62.15777,49.76497 111.15789,-35.10525 49.01352,-84.89262 -11.75183,-58.12249 -25.15787,-113.89473 -0.78708,-4.51211 -1.28973,-9.18486 -1.36836,-14.10516 0.0258,-1.72175 0.0461,-3.43974 0.21051,-5.10527 0.22636,-3.10586 0.71208,-6.0629 1.26316,-9 C 466.0335,186.12356 526.74455,212.89363 477.73211,128 428.7308,43.12969 421.55089,109.05469 366.57422,92.8421 362.23044,91.31166 357.89094,89.35556 353.57421,86.94737 349.33173,84.41538 345.48825,81.62494 341.99525,78.63158 300.51458,39.11912 354.03006,3.1250108e-8 256.04789,3.1250108e-8 Z M 245.99526,130.57894 h 20.05263 c 23.51083,0 42.42107,21.35858 42.42107,47.78948 v 18.78947 c 0,19.39803 -10.12602,36.00116 -24.84211,43.47369 l 4.89472,18.26315 h 2.1054 c 33.41091,0 60.31581,30.22994 60.31581,67.78948 v 27.78947 H 161.0479 v -27.78947 c 0,-37.55954 26.95853,-67.78948 60.36842,-67.78948 h 2.05263 l 5.05263,-18.26315 c -14.71999,-7.46935 -25,-24.07566 -25,-43.47369 v -18.78947 c 0,-26.4309 18.96285,-47.78948 42.47368,-47.78948 z"
     id="path2"
     inkscape:connector-curvature="0"
     style="fill:#3798fb;fill-opacity:1;stroke-width:1.00000012" />
</svg>
