<?xml version="1.0" encoding="UTF-8" standalone="no"?>
<svg
   width="51.176472"
   height="30"
   version="1"
   id="svg5"
   xmlns="http://www.w3.org/2000/svg"
   xmlns:svg="http://www.w3.org/2000/svg">
  <defs
     id="defs5" />
  <g
     id="g5"
     transform="matrix(1.7647059,0,0,1.7647059,-1.7647059,-14.117647)"
     style="stroke-width:0.566667">
    <path
       style="opacity:0.2;stroke-width:0.566667"
       d="m 22,9 c -3.356237,0 -6.224592,2.069753 -7.412109,5 H 1.8027344 L 1,14.681641 v 1.875 L 3.4101562,19 3.9472656,18.488281 4.4824219,19 5.5527344,17.720703 6.625,19 7.1601562,18.488281 7.6972656,19 8.5,18.232422 9.3027344,19 H 10.107422 L 10.642578,18.488281 11.177734,19 H 12 v 1 h 2.587891 c 1.187517,2.930247 4.055872,5 7.412109,5 4.418278,0 8,-3.581723 8,-8 0,-4.418278 -3.581722,-8 -8,-8 z m 4,6 c 1.104578,3e-5 2,0.895453 2,2 0,1.104548 -0.895422,1.99997 -2,2 -1.104578,-3e-5 -2,-0.895452 -2,-2 0,-1.104547 0.895422,-1.99997 2,-2 z"
       id="path1" />
    <path
       style="fill:#4caf50;stroke-width:0.566667"
       d="m 16,13 -5e-6,6 h -4 v -0.999943 h -0.82142 L 10.64286,17.488693 10.107145,18.000057 H 9.303573 L 8.500002,17.233012 7.696431,18.000057 7.160716,17.488693 6.625003,18.000055 5.553575,16.719943 4.482146,18.000057 3.946432,17.488693 3.410718,18.000057 1.000003,15.556819 1,13.681883 1.803577,13 Z"
       id="path2" />
    <path
       style="opacity:0.2;stroke-width:0.566667"
       d="m 12.864573,14.146777 c 0.29164,0.317454 0.08067,0.859188 -0.332191,0.853111 L 1.000003,15 1,14.000046 h 11.532382 c 0.124438,-0.0018 0.244273,0.05107 0.332191,0.146731 z"
       id="path3" />
    <path
       style="fill:#4caf50;stroke-width:0.566667"
       d="m 30,16 c 0,-4.418278 -3.581722,-8 -8,-8 -4.418278,0 -8,3.581722 -8,8 0,4.418277 3.581722,8 8,8 4.418278,0 8,-3.581723 8,-8 z m -2,0 c 0,1.104548 -0.895422,1.99997 -2,2 -1.104578,-3e-5 -2,-0.895452 -2,-2 0,-1.104547 0.895422,-1.99997 2,-2 1.104578,3e-5 2,0.895453 2,2 z"
       id="path4" />
    <path
       style="opacity:0.2;fill:#ffffff;stroke-width:0.418651"
       d="m 22,8 c -3.356237,0 -6.224592,2.069753 -7.412109,5 H 1.8027344 L 1,13.681641 v 1 L 1.8027344,14 H 14.587891 C 15.775408,11.069753 18.643763,9 22,9 c 4.249555,0 7.715353,3.315747 7.974609,7.5 C 29.984903,16.33387 30,16.168723 30,16 30,11.581722 26.418278,8 22,8 Z m 2.070312,8.5 C 24.028656,16.660755 24,16.82622 24,17 c 0,1.104548 0.895422,1.99997 2,2 1.104578,-3e-5 2,-0.895452 2,-2 0,-0.17378 -0.02866,-0.339245 -0.07031,-0.5 C 27.706575,17.361002 26.930793,17.999975 26,18 c -0.930793,-2.5e-5 -1.706575,-0.638998 -1.929688,-1.5 z"
       id="path5" />
  </g>
</svg>
