<?xml version="1.0" encoding="UTF-8" standalone="no"?>
<svg
   xmlns:dc="http://purl.org/dc/elements/1.1/"
   xmlns:cc="http://creativecommons.org/ns#"
   xmlns:rdf="http://www.w3.org/1999/02/22-rdf-syntax-ns#"
   xmlns:svg="http://www.w3.org/2000/svg"
   xmlns="http://www.w3.org/2000/svg"
   xmlns:sodipodi="http://sodipodi.sourceforge.net/DTD/sodipodi-0.dtd"
   xmlns:inkscape="http://www.inkscape.org/namespaces/inkscape"
   width="4.2333336mm"
   height="4.2333307mm"
   viewBox="0 0 4.2333336 4.2333308"
   version="1.1"
   id="svg8"
   inkscape:version="1.0.2 (e86c870, 2021-01-15)"
   sodipodi:docname="QRCicon.svg">
  <defs
     id="defs2">
    <clipPath
       clipPathUnits="userSpaceOnUse"
       id="clipPath828">
      <rect
         style="opacity:0.476;fill:#008000;fill-opacity:1;stroke:none;stroke-width:9.109;stroke-linecap:square;stroke-linejoin:miter;stroke-miterlimit:4;stroke-dasharray:none;stroke-opacity:1"
         id="rect830"
         width="6.6807284"
         height="6.7799478"
         x="21.332031"
         y="286.44974" />
    </clipPath>
    <clipPath
       clipPathUnits="userSpaceOnUse"
       id="clipPath828-6">
      <rect
         style="opacity:0.476;fill:#008000;fill-opacity:1;stroke:none;stroke-width:9.109;stroke-linecap:square;stroke-linejoin:miter;stroke-miterlimit:4;stroke-dasharray:none;stroke-opacity:1"
         id="rect830-2"
         width="6.6807284"
         height="6.7799478"
         x="21.332031"
         y="286.44974" />
    </clipPath>
    <clipPath
       clipPathUnits="userSpaceOnUse"
       id="clipPath828-7">
      <rect
         style="opacity:0.476;fill:#008000;fill-opacity:1;stroke:none;stroke-width:9.109;stroke-linecap:square;stroke-linejoin:miter;stroke-miterlimit:4;stroke-dasharray:none;stroke-opacity:1"
         id="rect830-5"
         width="6.6807284"
         height="6.7799478"
         x="21.332031"
         y="286.44974" />
    </clipPath>
  </defs>
  <sodipodi:namedview
     id="base"
     pagecolor="#ffffff"
     bordercolor="#666666"
     borderopacity="1.0"
     inkscape:pageopacity="0.0"
     inkscape:pageshadow="2"
     inkscape:zoom="11.313708"
     inkscape:cx="11.831548"
     inkscape:cy="9.7791075"
     inkscape:document-units="mm"
     inkscape:current-layer="svg8"
     inkscape:document-rotation="0"
     showgrid="false"
     inkscape:window-width="1920"
     inkscape:window-height="1052"
     inkscape:window-x="0"
     inkscape:window-y="26"
     inkscape:window-maximized="1" />
  <metadata
     id="metadata5">
    <rdf:RDF>
      <cc:Work
         rdf:about="">
        <dc:format>image/svg+xml</dc:format>
        <dc:type
           rdf:resource="http://purl.org/dc/dcmitype/StillImage" />
        <dc:title />
      </cc:Work>
    </rdf:RDF>
  </metadata>
  <path
     style="fill:#808080;fill-opacity:1;stroke-width:1"
     d="M 0,3.4007832 V 2.568219 H 0.80053394 1.6010688 V 3.4007832 4.2333307 H 0.80053394 0 Z m 1.2211547,0 V 2.9915538 H 0.80053394 0.37991497 V 3.4007832 3.8100043 H 0.80053394 1.2211547 Z M 1.9267093,3.8100043 V 3.3866696 h 0.1899579 0.189957 V 3.8100043 4.2333307 H 2.1166672 1.9267093 Z M 2.6322655,4.0357728 V 3.8382149 h 0.597008 0.5970089 V 3.2032169 2.568219 H 4.0298075 4.2333334 V 3.4007832 4.2333307 H 3.4327994 2.6322655 Z m 0,-1.001878 V 2.568219 H 3.0800205 3.527778 V 2.7657769 2.9633348 H 3.2699784 3.0121796 V 3.2314443 3.4995538 H 2.8222217 2.6322655 Z M 1.9267093,2.5964379 V 2.3142232 H 1.6417737 1.3568381 V 2.1166569 1.9191074 H 1.6417737 1.9267093 V 1.5804295 1.2417684 h 0.1899579 0.189957 V 2.060219 2.8786695 H 2.1166672 1.9267093 Z M 0,2.1166569 V 1.9191074 H 0.40705097 0.81410194 V 2.1166569 2.3142232 H 0.40705097 0 Z m 3.4192314,0 V 1.9191074 h 0.407051 0.407051 V 2.1166569 2.3142232 H 3.8262824 3.4192314 Z M 0,0.83254741 V 0 H 0.80053394 1.6010688 V 0.83254741 1.6651032 H 0.80053394 0 Z m 1.2211547,0 V 0.42332633 H 0.80053394 0.37991497 V 0.83254741 1.2417684 H 0.80053394 1.2211547 Z m 1.4111108,0 V 0 h 0.8005339 0.800534 V 0.83254741 1.6651032 H 3.4327994 2.6322655 Z m 1.2211529,0 V 0.42332633 H 3.4327994 3.0121796 V 0.83254741 1.2417684 h 0.4206198 0.420619 z M 1.9267093,0.42332633 V 0 h 0.1899579 0.189957 V 0.42332633 0.84666105 H 2.1166672 1.9267093 Z"
     id="path847" />
</svg>
