<?xml version="1.0" encoding="UTF-8" standalone="no"?>
<svg
   version="1.1"
   width="32"
   height="32"
   viewBox="0 0 903.11106 903.11106"
   preserveAspectRatio="xMidYMid"
   clip-path="url(#presentation_clip_path)"
   xml:space="preserve"
   id="svg2"
   inkscape:version="1.1.2 (0a00cf5, 2022-02-04)"
   sodipodi:docname="senlinos-website-logo.svg"
   style="fill-rule:evenodd;stroke-width:28.22200012;stroke-linejoin:round"
   inkscape:export-filename="180.png"
   inkscape:export-xdpi="540"
   inkscape:export-ydpi="540"
   xmlns:inkscape="http://www.inkscape.org/namespaces/inkscape"
   xmlns:sodipodi="http://sodipodi.sourceforge.net/DTD/sodipodi-0.dtd"
   xmlns="http://www.w3.org/2000/svg"
   xmlns:svg="http://www.w3.org/2000/svg"
   xmlns:rdf="http://www.w3.org/1999/02/22-rdf-syntax-ns#"
   xmlns:cc="http://creativecommons.org/ns#"
   xmlns:dc="http://purl.org/dc/elements/1.1/"><metadata
     id="metadata1868"><rdf:RDF><cc:Work
         rdf:about=""><dc:format>image/svg+xml</dc:format><dc:type
           rdf:resource="http://purl.org/dc/dcmitype/StillImage" /></cc:Work></rdf:RDF></metadata><sodipodi:namedview
     pagecolor="#ffffff"
     bordercolor="#666666"
     borderopacity="1"
     objecttolerance="10"
     gridtolerance="10"
     guidetolerance="10"
     inkscape:pageopacity="0"
     inkscape:pageshadow="2"
     inkscape:window-width="1920"
     inkscape:window-height="1055"
     id="namedview1866"
     showgrid="false"
     units="px"
     inkscape:showpageshadow="false"
     inkscape:zoom="16"
     inkscape:cx="19.34375"
     inkscape:cy="16.40625"
     inkscape:window-x="0"
     inkscape:window-y="25"
     inkscape:window-maximized="1"
     inkscape:current-layer="g1194"
     inkscape:pagecheckerboard="0"
     inkscape:object-paths="true"
     inkscape:snap-intersection-paths="true"
     inkscape:snap-smooth-nodes="true"
     inkscape:snap-midpoints="true"
     inkscape:snap-nodes="true"
     inkscape:lockguides="false"
     showguides="true"
     inkscape:guide-bbox="true" /><defs
     class="ClipPathGroup"
     id="defs4"><clipPath
       id="presentation_clip_path"
       clipPathUnits="userSpaceOnUse"><rect
         x="0"
         y="0"
         width="10587"
         height="10587"
         id="rect7" /></clipPath><clipPath
       clipPathUnits="userSpaceOnUse"
       id="presentation_clip_path-35"><rect
         id="rect7-62"
         height="10587"
         width="10587"
         y="0"
         x="0" /></clipPath><clipPath
       clipPathUnits="userSpaceOnUse"
       id="presentation_clip_path-3"><rect
         id="rect7-6"
         height="10587"
         width="10587"
         y="0"
         x="0" /></clipPath><clipPath
       id="presentation_clip_path-3-3"
       clipPathUnits="userSpaceOnUse"><rect
         x="0"
         y="0"
         width="10587"
         height="10587"
         id="rect7-6-6" /></clipPath><clipPath
       id="clipPath828"
       clipPathUnits="userSpaceOnUse"><rect
         y="286.44974"
         x="21.332031"
         height="6.7799478"
         width="6.6807284"
         id="rect830"
         style="opacity:0.47600002;fill:#008000;fill-opacity:1;stroke:none;stroke-width:9.10899925;stroke-linecap:square;stroke-linejoin:miter;stroke-miterlimit:4;stroke-dasharray:none;stroke-opacity:1" /></clipPath><clipPath
       id="clipPath828-3"
       clipPathUnits="userSpaceOnUse"><rect
         y="286.44974"
         x="21.332031"
         height="6.7799478"
         width="6.6807284"
         id="rect830-6"
         style="opacity:0.47600002;fill:#008000;fill-opacity:1;stroke:none;stroke-width:9.10899925;stroke-linecap:square;stroke-linejoin:miter;stroke-miterlimit:4;stroke-dasharray:none;stroke-opacity:1" /></clipPath><clipPath
       id="presentation_clip_path-356"
       clipPathUnits="userSpaceOnUse"><rect
         x="0"
         y="0"
         width="10587"
         height="10587"
         id="rect7-2" /></clipPath><clipPath
       clipPathUnits="userSpaceOnUse"
       id="presentation_clip_path-35-9"><rect
         id="rect7-62-1"
         height="10587"
         width="10587"
         y="0"
         x="0" /></clipPath><clipPath
       clipPathUnits="userSpaceOnUse"
       id="presentation_clip_path-3-2"><rect
         id="rect7-6-7"
         height="10587"
         width="10587"
         y="0"
         x="0" /></clipPath><clipPath
       id="presentation_clip_path-3-3-0"
       clipPathUnits="userSpaceOnUse"><rect
         x="0"
         y="0"
         width="10587"
         height="10587"
         id="rect7-6-6-9" /></clipPath><clipPath
       id="clipPath828-36"
       clipPathUnits="userSpaceOnUse"><rect
         y="286.44974"
         x="21.332031"
         height="6.7799478"
         width="6.6807284"
         id="rect830-0"
         style="opacity:0.47600002;fill:#008000;fill-opacity:1;stroke:none;stroke-width:9.10899925;stroke-linecap:square;stroke-linejoin:miter;stroke-miterlimit:4;stroke-dasharray:none;stroke-opacity:1" /></clipPath><clipPath
       id="clipPath828-3-6"
       clipPathUnits="userSpaceOnUse"><rect
         y="286.44974"
         x="21.332031"
         height="6.7799478"
         width="6.6807284"
         id="rect830-6-2"
         style="opacity:0.47600002;fill:#008000;fill-opacity:1;stroke:none;stroke-width:9.10899925;stroke-linecap:square;stroke-linejoin:miter;stroke-miterlimit:4;stroke-dasharray:none;stroke-opacity:1" /></clipPath><g
       id="bullet-char-template57356-8"
       transform="scale(4.8828125e-4,-4.8828125e-4)"><path
         d="M 580,1141 1163,571 580,0 -4,571 580,1141 Z"
         id="path14-7"
         inkscape:connector-curvature="0" /></g><g
       id="bullet-char-template57354-9"
       transform="scale(4.8828125e-4,-4.8828125e-4)"><path
         d="m 8,1128 1129,0 L 1137,0 8,0 8,1128 Z"
         id="path17-2"
         inkscape:connector-curvature="0" /></g><g
       id="bullet-char-template10146-0"
       transform="scale(4.8828125e-4,-4.8828125e-4)"><path
         d="M 174,0 602,739 174,1481 1456,739 174,0 Z m 1184,739 -1049,607 350,-607 699,0 z"
         id="path20-2"
         inkscape:connector-curvature="0" /></g><g
       id="bullet-char-template10132-3"
       transform="scale(4.8828125e-4,-4.8828125e-4)"><path
         d="M 2015,739 1276,0 717,0 l 543,543 -1086,0 0,393 1086,0 -543,545 557,0 741,-742 z"
         id="path23-7"
         inkscape:connector-curvature="0" /></g><g
       id="bullet-char-template10007-5"
       transform="scale(4.8828125e-4,-4.8828125e-4)"><path
         d="m 0,-2 c -7,16 -16,29 -25,39 l 381,530 c -94,256 -141,385 -141,387 0,25 13,38 40,38 9,0 21,-2 34,-5 21,4 42,12 65,25 l 27,-13 111,-251 280,301 64,-25 24,25 c 21,-10 41,-24 62,-43 C 886,937 835,863 770,784 769,783 710,716 594,584 L 774,223 c 0,-27 -21,-55 -63,-84 l 16,-20 C 717,90 699,76 672,76 641,76 570,178 457,381 L 164,-76 c -22,-34 -53,-51 -92,-51 -42,0 -63,17 -64,51 -7,9 -10,24 -10,44 0,9 1,19 2,30 z"
         id="path26-9"
         inkscape:connector-curvature="0" /></g><g
       id="bullet-char-template10004-2"
       transform="scale(4.8828125e-4,-4.8828125e-4)"><path
         d="M 285,-33 C 182,-33 111,30 74,156 52,228 41,333 41,471 c 0,78 14,145 41,201 34,71 87,106 158,106 53,0 88,-31 106,-94 l 23,-176 c 8,-64 28,-97 59,-98 l 735,706 c 11,11 33,17 66,17 42,0 63,-15 63,-46 l 0,-122 c 0,-36 -10,-64 -30,-84 L 442,47 C 390,-6 338,-33 285,-33 Z"
         id="path29-2"
         inkscape:connector-curvature="0" /></g><g
       id="bullet-char-template9679-8"
       transform="scale(4.8828125e-4,-4.8828125e-4)"><path
         d="M 813,0 C 632,0 489,54 383,161 276,268 223,411 223,592 c 0,181 53,324 160,431 106,107 249,161 430,161 179,0 323,-54 432,-161 108,-107 162,-251 162,-431 0,-180 -54,-324 -162,-431 C 1136,54 992,0 813,0 Z"
         id="path32-9"
         inkscape:connector-curvature="0" /></g><g
       id="bullet-char-template8226-7"
       transform="scale(4.8828125e-4,-4.8828125e-4)"><path
         d="m 346,457 c -73,0 -137,26 -191,78 -54,51 -81,114 -81,188 0,73 27,136 81,188 54,52 118,78 191,78 73,0 134,-26 185,-79 51,-51 77,-114 77,-187 0,-75 -25,-137 -76,-188 -50,-52 -112,-78 -186,-78 z"
         id="path35-3"
         inkscape:connector-curvature="0" /></g><g
       id="bullet-char-template8211-6"
       transform="scale(4.8828125e-4,-4.8828125e-4)"><path
         d="m -4,459 1139,0 0,147 -1139,0 0,-147 z"
         id="path38-1"
         inkscape:connector-curvature="0" /></g></defs><defs
     class="TextShapeIndex"
     id="defs9" /><defs
     class="EmbeddedBulletChars"
     id="defs11"><g
       id="bullet-char-template57356"
       transform="scale(4.8828125e-4,-4.8828125e-4)"><path
         d="M 580,1141 1163,571 580,0 -4,571 580,1141 Z"
         id="path14"
         inkscape:connector-curvature="0" /></g><g
       id="bullet-char-template57354"
       transform="scale(4.8828125e-4,-4.8828125e-4)"><path
         d="m 8,1128 1129,0 L 1137,0 8,0 8,1128 Z"
         id="path17"
         inkscape:connector-curvature="0" /></g><g
       id="bullet-char-template10146"
       transform="scale(4.8828125e-4,-4.8828125e-4)"><path
         d="M 174,0 602,739 174,1481 1456,739 174,0 Z m 1184,739 -1049,607 350,-607 699,0 z"
         id="path20"
         inkscape:connector-curvature="0" /></g><g
       id="bullet-char-template10132"
       transform="scale(4.8828125e-4,-4.8828125e-4)"><path
         d="M 2015,739 1276,0 717,0 l 543,543 -1086,0 0,393 1086,0 -543,545 557,0 741,-742 z"
         id="path23"
         inkscape:connector-curvature="0" /></g><g
       id="bullet-char-template10007"
       transform="scale(4.8828125e-4,-4.8828125e-4)"><path
         d="m 0,-2 c -7,16 -16,29 -25,39 l 381,530 c -94,256 -141,385 -141,387 0,25 13,38 40,38 9,0 21,-2 34,-5 21,4 42,12 65,25 l 27,-13 111,-251 280,301 64,-25 24,25 c 21,-10 41,-24 62,-43 C 886,937 835,863 770,784 769,783 710,716 594,584 L 774,223 c 0,-27 -21,-55 -63,-84 l 16,-20 C 717,90 699,76 672,76 641,76 570,178 457,381 L 164,-76 c -22,-34 -53,-51 -92,-51 -42,0 -63,17 -64,51 -7,9 -10,24 -10,44 0,9 1,19 2,30 z"
         id="path26"
         inkscape:connector-curvature="0" /></g><g
       id="bullet-char-template10004"
       transform="scale(4.8828125e-4,-4.8828125e-4)"><path
         d="M 285,-33 C 182,-33 111,30 74,156 52,228 41,333 41,471 c 0,78 14,145 41,201 34,71 87,106 158,106 53,0 88,-31 106,-94 l 23,-176 c 8,-64 28,-97 59,-98 l 735,706 c 11,11 33,17 66,17 42,0 63,-15 63,-46 l 0,-122 c 0,-36 -10,-64 -30,-84 L 442,47 C 390,-6 338,-33 285,-33 Z"
         id="path29"
         inkscape:connector-curvature="0" /></g><g
       id="bullet-char-template9679"
       transform="scale(4.8828125e-4,-4.8828125e-4)"><path
         d="M 813,0 C 632,0 489,54 383,161 276,268 223,411 223,592 c 0,181 53,324 160,431 106,107 249,161 430,161 179,0 323,-54 432,-161 108,-107 162,-251 162,-431 0,-180 -54,-324 -162,-431 C 1136,54 992,0 813,0 Z"
         id="path32"
         inkscape:connector-curvature="0" /></g><g
       id="bullet-char-template8226"
       transform="scale(4.8828125e-4,-4.8828125e-4)"><path
         d="m 346,457 c -73,0 -137,26 -191,78 -54,51 -81,114 -81,188 0,73 27,136 81,188 54,52 118,78 191,78 73,0 134,-26 185,-79 51,-51 77,-114 77,-187 0,-75 -25,-137 -76,-188 -50,-52 -112,-78 -186,-78 z"
         id="path35"
         inkscape:connector-curvature="0" /></g><g
       id="bullet-char-template8211"
       transform="scale(4.8828125e-4,-4.8828125e-4)"><path
         d="m -4,459 1139,0 0,147 -1139,0 0,-147 z"
         id="path38"
         inkscape:connector-curvature="0" /></g></defs><defs
     class="TextEmbeddedBitmaps"
     id="defs40" /><g
     id="g1194"><g
       id="g890"
       transform="translate(-4.6760138)"><path
         id="rect934"
         style="display:inline;fill:#009cff;fill-opacity:1;fill-rule:evenodd;stroke-width:597.734;stroke-linejoin:round"
         d="m 319.24425,109.1268 c -12.39718,74.95481 -65.38915,195.66997 -70.51117,217.86201 l -15.49073,66.87461 v 42.5523 l 12.46815,5.57289 v 61.16003 l -12.46815,8.73717 v 72.40026 l 9.11497,3.2115 v 47.88901 l 62.19907,3.16428 h 37.97117 l 62.10462,-3.16428 v -47.88901 l 9.11497,-3.2115 V 511.88581 L 401.279,503.14864 v -61.16003 l 12.46815,-5.57289 v -42.5523 L 398.25642,326.98881 C 393.13438,304.79677 340.14245,184.08161 327.74525,109.1268 h -3.06981 l 1.27505,183.66906 h 10.05954 V 438.06868 H 310.97928 V 292.79586 h 10.05954 l 1.27504,-183.66906 z m -28.24225,532.16327 -52.98963,1.65299 -55.72886,42.31614 v 108.72507 l 282.42248,97.60919 V 685.2592 l -55.72886,-42.31614 -52.98963,-1.65299 z"
         sodipodi:nodetypes="cccccccccccccccccccccccccccccccccccccccc" /><path
         id="path1392"
         style="display:inline;fill:#009cff;fill-opacity:1;stroke:none;stroke-width:24.6681px;stroke-linecap:butt;stroke-linejoin:miter;stroke-opacity:1"
         d="m 530.80597,177.4741 c 22.22936,182.98605 -84.4112,187.48881 -84.4112,327.33431 0,74.31625 60.25023,134.56657 134.56648,134.56657 74.31634,0 134.56657,-60.25032 134.56657,-134.56657 C 714.90059,363.48241 597.86309,238.82322 530.80597,177.4741 Z m -45.3855,466.57426 -44.27728,247.5451 279.68436,-97.60919 -44.32551,-149.88766 z"
         sodipodi:nodetypes="cssccccccc" /></g><path
       id="path6892"
       style="display:inline;opacity:1;fill:#009cff;fill-opacity:1;stroke-width:1489.06;stroke-linejoin:round;stroke-miterlimit:10"
       d="M 451.55553,0.02970923 C 331.80344,0.02970979 216.93508,47.580017 132.25755,132.25755 47.580022,216.93507 0.02971307,331.80344 0.02971113,451.55553 0.02971362,571.30763 47.580022,686.17599 132.25755,770.8535 c 84.67753,84.67752 199.54589,132.22786 319.29798,132.22786 119.7521,0 234.62046,-47.55034 319.29798,-132.22786 84.67751,-84.67751 132.22785,-199.54587 132.22785,-319.29797 0,-119.75209 -47.55034,-234.62046 -132.22785,-319.29798 C 686.17599,47.580009 571.30763,0.02970923 451.55553,0.02970923 Z m 0,76.10957277 C 658.89639,76.133877 826.97711,244.21466 826.97177,451.55553 826.97719,658.89642 658.89642,826.97711 451.55553,826.97177 244.21466,826.97719 76.133945,658.89639 76.139284,451.55553 76.133879,244.21466 244.21466,76.133943 451.55553,76.139282 Z"
       sodipodi:nodetypes="sssssssssccccc" /></g></svg>
