<?xml version="1.0" encoding="UTF-8" standalone="no"?>
<svg
   xmlns:dc="http://purl.org/dc/elements/1.1/"
   xmlns:cc="http://creativecommons.org/ns#"
   xmlns:rdf="http://www.w3.org/1999/02/22-rdf-syntax-ns#"
   xmlns:svg="http://www.w3.org/2000/svg"
   xmlns="http://www.w3.org/2000/svg"
   xmlns:sodipodi="http://sodipodi.sourceforge.net/DTD/sodipodi-0.dtd"
   xmlns:inkscape="http://www.inkscape.org/namespaces/inkscape"
   width="28.316011"
   height="33.508984"
   viewBox="0 0 7.4919446 8.8659187"
   version="1.1"
   id="svg8"
   inkscape:version="1.0.2 (e86c870, 2021-01-15)"
   sodipodi:docname="tips-img.svg">
  <defs
     id="defs2" />
  <sodipodi:namedview
     id="base"
     pagecolor="#ffffff"
     bordercolor="#666666"
     borderopacity="1.0"
     inkscape:pageopacity="0.0"
     inkscape:pageshadow="2"
     inkscape:zoom="16"
     inkscape:cx="8.0511823"
     inkscape:cy="17.656248"
     inkscape:document-units="mm"
     inkscape:current-layer="svg8"
     inkscape:document-rotation="0"
     showgrid="false"
     inkscape:window-width="1920"
     inkscape:window-height="1052"
     inkscape:window-x="0"
     inkscape:window-y="26"
     inkscape:window-maximized="1"
     inkscape:object-paths="true"
     inkscape:snap-intersection-paths="true"
     inkscape:snap-smooth-nodes="true"
     inkscape:snap-midpoints="true"
     inkscape:snap-nodes="false"
     inkscape:object-nodes="true"
     units="px" />
  <metadata
     id="metadata5">
    <rdf:RDF>
      <cc:Work
         rdf:about="">
        <dc:format>image/svg+xml</dc:format>
        <dc:type
           rdf:resource="http://purl.org/dc/dcmitype/StillImage" />
        <dc:title></dc:title>
      </cc:Work>
    </rdf:RDF>
  </metadata>
  <path
     id="path1257"
     style="font-style:normal;font-variant:normal;font-weight:600;font-stretch:normal;font-size:3.46062px;line-height:1.25;font-family:FreeSans;-inkscape-font-specification:'FreeSans, Semi-Bold';font-variant-ligatures:normal;font-variant-caps:normal;font-variant-numeric:normal;font-variant-east-asian:normal;writing-mode:tb-rl;fill:#12365a;fill-opacity:1;stroke-width:0.999999"
     d="M 12.466797 0.0078125 C 12.043769 0.040101722 11.618339 0.16556003 11.228516 0.390625 L 1.4492188 6.0371094 C 0.065286303 6.836123 -0.41025396 8.6240326 0.38867188 10.007812 L 7.578125 22.464844 L 6.9082031 27.767578 L 10.638672 27.767578 L 13.115234 32.060547 C 13.914193 33.444386 15.703778 33.920211 17.087891 33.121094 L 26.867188 27.476562 C 28.25112 26.677549 28.726661 24.887687 27.927734 23.503906 L 15.201172 1.4589844 C 14.701765 0.59398609 13.817286 0.072952393 12.886719 0.0078125 C 12.74738 -0.0019417047 12.607806 -0.002950574 12.466797 0.0078125 z M 12.787109 1.4511719 C 13.253895 1.4838459 13.690499 1.7330005 13.947266 2.1777344 L 26.675781 24.230469 C 27.086734 24.942259 26.853789 25.812039 26.142578 26.222656 L 16.361328 31.869141 C 15.650298 32.279654 14.778105 32.045716 14.367188 31.333984 L 11.470703 26.316406 L 8.5449219 26.316406 L 9.0722656 22.166016 L 1.640625 9.2890625 C 1.2296725 8.577272 1.4626183 7.6996794 2.1738281 7.2890625 L 11.955078 1.6445312 C 12.220991 1.4910053 12.50605 1.4314966 12.787109 1.4511719 z M 11.373047 4.2695312 L 10.191406 4.953125 L 11.398438 7.0449219 L 5.6816406 10.345703 L 6.5 11.765625 L 12.21875 8.4648438 L 13.382812 10.480469 L 14.564453 9.7988281 L 11.373047 4.2695312 z M 15.166016 10.839844 L 8.2675781 14.824219 L 9.0859375 16.244141 L 15.986328 12.259766 L 15.166016 10.839844 z M 16.861328 13.773438 L 9.9609375 17.757812 L 10.78125 19.177734 L 13.242188 17.757812 L 14.263672 19.527344 C 14.628041 20.15845 15.12852 20.543461 15.763672 20.681641 C 16.398823 20.81982 17.065098 20.685703 17.765625 20.28125 C 18.459841 19.880442 18.879661 19.381465 19.023438 18.785156 C 19.170856 18.195159 19.036477 17.541727 18.621094 16.822266 L 16.861328 13.773438 z M 16.498047 15.876953 L 17.261719 17.203125 C 17.480342 17.581789 17.556657 17.908506 17.488281 18.183594 C 17.423551 18.464994 17.214747 18.706109 16.861328 18.910156 C 16.173423 19.307318 15.615765 19.138785 15.189453 18.400391 L 14.423828 17.074219 L 16.498047 15.876953 z M 19.646484 20.724609 C 19.404268 20.722488 19.158991 20.766651 18.910156 20.853516 C 18.744269 20.911437 18.577026 20.988471 18.408203 21.085938 C 17.871763 21.395651 17.546338 21.781601 17.433594 22.242188 C 17.320847 22.702774 17.399961 23.320611 17.671875 24.097656 L 18.041016 25.173828 C 18.225937 25.698169 18.29826 26.101679 18.259766 26.384766 C 18.221252 26.66786 18.062839 26.890458 17.785156 27.050781 C 17.494851 27.218392 17.194598 27.222154 16.884766 27.064453 C 16.578576 26.913066 16.302459 26.622512 16.054688 26.193359 C 15.777757 25.713721 15.660516 25.284269 15.703125 24.90625 C 15.745733 24.528232 15.944956 24.218738 16.302734 23.978516 L 15.505859 22.597656 C 14.792971 23.068145 14.380253 23.659234 14.269531 24.371094 C 14.162453 25.089266 14.364882 25.88989 14.875 26.773438 C 15.38876 27.663297 15.984926 28.242961 16.664062 28.515625 C 17.349511 28.784648 18.04166 28.718904 18.742188 28.314453 C 19.284939 28.001096 19.62099 27.613906 19.75 27.152344 C 19.885321 26.687138 19.833588 26.098963 19.591797 25.388672 L 19.175781 24.189453 C 18.985262 23.626271 18.897879 23.219044 18.912109 22.966797 C 18.93267 22.710904 19.067873 22.509028 19.320312 22.363281 C 19.579063 22.213892 19.845742 22.202965 20.121094 22.330078 C 20.402755 22.453567 20.651947 22.698413 20.863281 23.064453 C 21.391619 23.979556 21.309463 24.670846 20.619141 25.136719 L 21.384766 26.460938 C 21.744497 26.253263 22.022201 26.007509 22.220703 25.724609 C 22.429157 25.444377 22.557717 25.168907 22.603516 24.898438 C 22.655625 24.624325 22.654596 24.334441 22.603516 24.027344 C 22.558744 23.716605 22.486341 23.436821 22.386719 23.191406 C 22.29075 22.9523 22.17557 22.714429 22.037109 22.474609 C 21.559782 21.647862 21.001623 21.110963 20.363281 20.865234 C 20.127636 20.774086 19.888701 20.726731 19.646484 20.724609 z "
     transform="scale(0.26458333)" />
</svg>
