<?xml version="1.0" encoding="UTF-8" standalone="no"?>
<svg
   xmlns:dc="http://purl.org/dc/elements/1.1/"
   xmlns:cc="http://creativecommons.org/ns#"
   xmlns:rdf="http://www.w3.org/1999/02/22-rdf-syntax-ns#"
   xmlns:svg="http://www.w3.org/2000/svg"
   xmlns="http://www.w3.org/2000/svg"
   xmlns:sodipodi="http://sodipodi.sourceforge.net/DTD/sodipodi-0.dtd"
   xmlns:inkscape="http://www.inkscape.org/namespaces/inkscape"
   class="{{ .class }}"
   aria-label="Email"
   role="img"
   width="50"
   height="19"
   viewBox="0 0 512 512"
   version="1.1"
   id="svg4"
   sodipodi:docname="translation.svg"
   inkscape:version="0.92.3 (2405546, 2018-03-11)">
  <metadata
     id="metadata10">
    <rdf:RDF>
      <cc:Work
         rdf:about="">
        <dc:format>image/svg+xml</dc:format>
        <dc:type
           rdf:resource="http://purl.org/dc/dcmitype/StillImage" />
        <dc:title></dc:title>
      </cc:Work>
    </rdf:RDF>
  </metadata>
  <defs
     id="defs8" />
  <sodipodi:namedview
     pagecolor="#ffffff"
     bordercolor="#666666"
     borderopacity="1"
     objecttolerance="10"
     gridtolerance="10"
     guidetolerance="10"
     inkscape:pageopacity="0"
     inkscape:pageshadow="2"
     inkscape:window-width="640"
     inkscape:window-height="480"
     id="namedview6"
     showgrid="false"
     inkscape:showpageshadow="false"
     inkscape:zoom="16"
     inkscape:cx="26.286774"
     inkscape:cy="5.0815772"
     inkscape:current-layer="svg4" />
  <path
     d="M 594.54922,0 C 514.78074,0 442.3334,25.12127 389.33645,66.26389 336.33951,107.4065 302.546,165.20942 302.546,229.4762 c 0,37.77412 11.93709,73.22279 32.31616,104.47483 l -73.63239,106.79066 142.68578,-37.68464 c 51.3776,34.89221 117.87352,55.94799 190.63367,55.94799 79.76843,0 152.26843,-25.12129 205.26538,-66.26388 52.99695,-41.14261 86.57987,-98.99818 86.57997,-163.26496 0,-64.26678 -33.58302,-122.0697 -86.57997,-163.21231 C 746.81765,25.12127 674.31765,0 594.54922,0 Z m 0,42.10572 c 68.36211,0 130.07574,21.57848 174.2124,55.842718 44.13676,34.264242 70.57973,80.605842 70.57973,131.527762 0,50.92193 -26.44297,97.31615 -70.57973,131.5804 -44.13666,34.26423 -105.85029,55.84271 -174.2124,55.84271 -68.36212,0 -130.0231,-21.57848 -174.15981,-55.84271 -44.13672,-34.26425 -70.57971,-80.65847 -70.57971,-131.5804 0,-50.92192 26.44299,-97.26352 70.57971,-131.527762 C 464.52612,63.6842 526.1871,42.10572 594.54922,42.10572 Z M 66.280265,61.52699 A 40.526746,40.526746 0 0 0 25.75352,102.05375 40.526746,40.526746 0 0 0 52.7538,140.21206 v 82.94828 h -82.948264 a 40.526746,40.526746 0 0 0 -38.15832,-27.00029 40.526746,40.526746 0 0 0 -40.526766,40.52675 40.526746,40.526746 0 0 0 40.526766,40.52676 40.526746,40.526746 0 0 0 38.15832,-27.0003 H 52.7538 v 82.94829 A 40.526746,40.526746 0 0 0 25.75352,371.31987 40.526746,40.526746 0 0 0 66.280265,411.84662 40.526746,40.526746 0 0 0 106.80702,371.31987 40.526746,40.526746 0 0 0 79.806725,333.10891 V 250.21326 H 162.755 a 40.526746,40.526746 0 0 0 38.15832,27.0003 40.526746,40.526746 0 0 0 40.52676,-40.52676 40.526746,40.526746 0 0 0 -40.52676,-40.52675 40.526746,40.526746 0 0 0 -38.15832,27.00029 H 79.806725 V 140.21206 A 40.526746,40.526746 0 0 0 106.80702,102.05375 40.526746,40.526746 0 0 0 66.280265,61.52699 Z M 530.54852,87.948328 A 195.51657,149.98636 0 0 0 400.28394,214.2655 h 69.21128 c 2.68805,-38.31946 14.66737,-73.16791 34.31615,-99.73792 7.68128,-10.38701 16.93661,-19.014762 26.73715,-26.579252 z m 127.94876,0 c 9.80097,7.56448 19.00327,16.192242 26.68455,26.579252 19.64869,26.57001 31.62812,61.41846 34.31613,99.73792 h 69.52712 A 195.51657,149.98636 0 0 0 658.49728,87.948328 Z m -79.31666,8.84221 c -19.1416,4.361902 -36.73686,16.486202 -50.89527,35.631962 -15.43028,20.86548 -25.62691,49.71623 -28.2635,81.843 h 79.15877 z m 30.5267,0 V 214.2655 h 79.47455 c -2.68537,-32.12596 -13.04417,-60.97796 -28.47405,-81.843 -14.18671,-19.18405 -31.8141,-31.29385 -51.0005,-35.631962 z M 400.12603,244.79216 A 195.51657,149.98636 0 0 0 530.54852,371.0567 c -9.8017,-7.56459 -19.05607,-16.09135 -26.73715,-26.47398 -19.66885,-26.58663 -31.6393,-61.44901 -34.31615,-99.79056 z m 99.89582,0 c 2.62498,32.13577 12.81537,60.90904 28.2635,81.79038 14.15747,19.13691 31.75507,31.26754 50.89527,35.63196 V 244.79216 Z m 109.68547,0 V 362.2145 c 19.18487,-4.34062 36.81471,-16.45675 51.0005,-35.63196 15.44781,-20.88089 25.8003,-49.65544 28.47405,-81.79038 z m 109.79064,0 c -2.6766,38.34155 -14.64737,73.20393 -34.31613,99.79056 -7.68148,10.38263 -16.88287,18.90939 -26.68455,26.47398 A 195.51657,149.98636 0 0 0 788.81445,244.79216 Z"
     id="path2"
     inkscape:connector-curvature="0"
     style="stroke-width:0.99999952;fill:#d2008e;fill-opacity:1" />
</svg>
